<svg xmlns="http://www.w3.org/2000/svg" viewBox="0 0 960 720" width="960" height="720" role="img" aria-label="摄影协会 截图占位图 02">
  <title>摄影协会 · 截图占位图 02</title>
  <rect x="0" y="0" width="960" height="720" fill="#23232a"/>
  <g opacity="0.55" shape-rendering="crispEdges"><rect x="0" y="0" width="32" height="32" fill="rgb(8,72,68)"/><rect x="32" y="0" width="32" height="32" fill="rgb(8,77,73)"/><rect x="64" y="0" width="32" height="32" fill="rgb(7,69,65)"/><rect x="96" y="0" width="32" height="32" fill="rgb(9,79,75)"/><rect x="128" y="0" width="32" height="32" fill="rgb(11,100,95)"/><rect x="160" y="0" width="32" height="32" fill="rgb(14,124,118)"/><rect x="192" y="0" width="32" height="32" fill="rgb(8,71,68)"/><rect x="224" y="0" width="32" height="32" fill="rgb(16,144,137)"/><rect x="256" y="0" width="32" height="32" fill="rgb(15,135,128)"/><rect x="288" y="0" width="32" height="32" fill="rgb(16,149,141)"/><rect x="320" y="0" width="32" height="32" fill="rgb(13,118,112)"/><rect x="352" y="0" width="32" height="32" fill="rgb(12,106,101)"/><rect x="384" y="0" width="32" height="32" fill="rgb(7,68,65)"/><rect x="416" y="0" width="32" height="32" fill="rgb(6,56,53)"/><rect x="448" y="0" width="32" height="32" fill="rgb(5,46,44)"/><rect x="480" y="0" width="32" height="32" fill="rgb(9,79,75)"/><rect x="512" y="0" width="32" height="32" fill="rgb(10,91,87)"/><rect x="544" y="0" width="32" height="32" fill="rgb(12,109,103)"/><rect x="576" y="0" width="32" height="32" fill="rgb(8,74,71)"/><rect x="608" y="0" width="32" height="32" fill="rgb(14,131,124)"/><rect x="640" y="0" width="32" height="32" fill="rgb(5,48,45)"/><rect x="672" y="0" width="32" height="32" fill="rgb(17,155,147)"/><rect x="704" y="0" width="32" height="32" fill="rgb(16,143,136)"/><rect x="736" y="0" width="32" height="32" fill="rgb(9,84,80)"/><rect x="768" y="0" width="32" height="32" fill="rgb(12,110,104)"/><rect x="800" y="0" width="32" height="32" fill="rgb(14,126,119)"/><rect x="832" y="0" width="32" height="32" fill="rgb(8,75,71)"/><rect x="864" y="0" width="32" height="32" fill="rgb(17,152,145)"/><rect x="896" y="0" width="32" height="32" fill="rgb(16,146,138)"/><rect x="928" y="0" width="32" height="32" fill="rgb(8,76,72)"/><rect x="0" y="32" width="32" height="32" fill="rgb(14,132,125)"/><rect x="32" y="32" width="32" height="32" fill="rgb(10,92,88)"/><rect x="64" y="32" width="32" height="32" fill="rgb(7,68,64)"/><rect x="96" y="32" width="32" height="32" fill="rgb(15,140,133)"/><rect x="128" y="32" width="32" height="32" fill="rgb(13,121,115)"/><rect x="160" y="32" width="32" height="32" fill="rgb(7,61,58)"/><rect x="192" y="32" width="32" height="32" fill="rgb(6,57,54)"/><rect x="224" y="32" width="32" height="32" fill="rgb(13,117,111)"/><rect x="256" y="32" width="32" height="32" fill="rgb(10,93,89)"/><rect x="288" y="32" width="32" height="32" fill="rgb(15,135,128)"/><rect x="320" y="32" width="32" height="32" fill="rgb(10,91,86)"/><rect x="352" y="32" width="32" height="32" fill="rgb(14,129,123)"/><rect x="384" y="32" width="32" height="32" fill="rgb(13,115,109)"/><rect x="416" y="32" width="32" height="32" fill="rgb(12,112,107)"/><rect x="448" y="32" width="32" height="32" fill="rgb(10,90,85)"/><rect x="480" y="32" width="32" height="32" fill="rgb(11,101,96)"/><rect x="512" y="32" width="32" height="32" fill="rgb(8,78,74)"/><rect x="544" y="32" width="32" height="32" fill="rgb(15,136,129)"/><rect x="576" y="32" width="32" height="32" fill="rgb(5,47,45)"/><rect x="608" y="32" width="32" height="32" fill="rgb(9,80,76)"/><rect x="640" y="32" width="32" height="32" fill="rgb(6,51,48)"/><rect x="672" y="32" width="32" height="32" fill="rgb(8,77,73)"/><rect x="704" y="32" width="32" height="32" fill="rgb(11,100,95)"/><rect x="736" y="32" width="32" height="32" fill="rgb(12,111,105)"/><rect x="768" y="32" width="32" height="32" fill="rgb(15,135,128)"/><rect x="800" y="32" width="32" height="32" fill="rgb(12,107,102)"/><rect x="832" y="32" width="32" height="32" fill="rgb(13,122,116)"/><rect x="864" y="32" width="32" height="32" fill="rgb(10,89,85)"/><rect x="896" y="32" width="32" height="32" fill="rgb(14,130,124)"/><rect x="928" y="32" width="32" height="32" fill="rgb(8,71,68)"/><rect x="0" y="64" width="32" height="32" fill="rgb(8,69,66)"/><rect x="32" y="64" width="32" height="32" fill="rgb(14,125,118)"/><rect x="64" y="64" width="32" height="32" fill="rgb(7,63,60)"/><rect x="96" y="64" width="32" height="32" fill="rgb(7,66,63)"/><rect x="128" y="64" width="32" height="32" fill="rgb(15,136,129)"/><rect x="160" y="64" width="32" height="32" fill="rgb(12,106,101)"/><rect x="192" y="64" width="32" height="32" fill="rgb(12,110,105)"/><rect x="224" y="64" width="32" height="32" fill="rgb(5,46,44)"/><rect x="256" y="64" width="32" height="32" fill="rgb(15,135,128)"/><rect x="288" y="64" width="32" height="32" fill="rgb(9,81,77)"/><rect x="320" y="64" width="32" height="32" fill="rgb(6,56,53)"/><rect x="352" y="64" width="32" height="32" fill="rgb(11,105,100)"/><rect x="384" y="64" width="32" height="32" fill="rgb(17,157,149)"/><rect x="416" y="64" width="32" height="32" fill="rgb(10,94,89)"/><rect x="448" y="64" width="32" height="32" fill="rgb(7,67,64)"/><rect x="480" y="64" width="32" height="32" fill="rgb(5,45,43)"/><rect x="512" y="64" width="32" height="32" fill="rgb(10,92,87)"/><rect x="544" y="64" width="32" height="32" fill="rgb(15,138,131)"/><rect x="576" y="64" width="32" height="32" fill="rgb(9,82,78)"/><rect x="608" y="64" width="32" height="32" fill="rgb(6,60,57)"/><rect x="640" y="64" width="32" height="32" fill="rgb(12,108,102)"/><rect x="672" y="64" width="32" height="32" fill="rgb(9,84,80)"/><rect x="704" y="64" width="32" height="32" fill="rgb(15,136,129)"/><rect x="736" y="64" width="32" height="32" fill="rgb(7,64,61)"/><rect x="768" y="64" width="32" height="32" fill="rgb(13,115,109)"/><rect x="800" y="64" width="32" height="32" fill="rgb(10,88,84)"/><rect x="832" y="64" width="32" height="32" fill="rgb(9,79,75)"/><rect x="864" y="64" width="32" height="32" fill="rgb(12,109,103)"/><rect x="896" y="64" width="32" height="32" fill="rgb(13,117,112)"/><rect x="928" y="64" width="32" height="32" fill="rgb(5,43,41)"/><rect x="0" y="96" width="32" height="32" fill="rgb(5,44,41)"/><rect x="32" y="96" width="32" height="32" fill="rgb(15,138,131)"/><rect x="64" y="96" width="32" height="32" fill="rgb(16,147,139)"/><rect x="96" y="96" width="32" height="32" fill="rgb(16,146,139)"/><rect x="128" y="96" width="32" height="32" fill="rgb(10,95,90)"/><rect x="160" y="96" width="32" height="32" fill="rgb(12,111,105)"/><rect x="192" y="96" width="32" height="32" fill="rgb(10,91,86)"/><rect x="224" y="96" width="32" height="32" fill="rgb(8,75,71)"/><rect x="256" y="96" width="32" height="32" fill="rgb(5,43,41)"/><rect x="288" y="96" width="32" height="32" fill="rgb(6,59,56)"/><rect x="320" y="96" width="32" height="32" fill="rgb(10,88,84)"/><rect x="352" y="96" width="32" height="32" fill="rgb(17,155,147)"/><rect x="384" y="96" width="32" height="32" fill="rgb(9,82,78)"/><rect x="416" y="96" width="32" height="32" fill="rgb(12,114,108)"/><rect x="448" y="96" width="32" height="32" fill="rgb(8,74,70)"/><rect x="480" y="96" width="32" height="32" fill="rgb(8,72,68)"/><rect x="512" y="96" width="32" height="32" fill="rgb(8,70,66)"/><rect x="544" y="96" width="32" height="32" fill="rgb(7,65,61)"/><rect x="576" y="96" width="32" height="32" fill="rgb(10,90,86)"/><rect x="608" y="96" width="32" height="32" fill="rgb(12,113,107)"/><rect x="640" y="96" width="32" height="32" fill="rgb(14,127,121)"/><rect x="672" y="96" width="32" height="32" fill="rgb(8,77,73)"/><rect x="704" y="96" width="32" height="32" fill="rgb(12,106,101)"/><rect x="736" y="96" width="32" height="32" fill="rgb(18,165,156)"/><rect x="768" y="96" width="32" height="32" fill="rgb(16,143,136)"/><rect x="800" y="96" width="32" height="32" fill="rgb(8,72,68)"/><rect x="832" y="96" width="32" height="32" fill="rgb(8,74,70)"/><rect x="864" y="96" width="32" height="32" fill="rgb(13,120,114)"/><rect x="896" y="96" width="32" height="32" fill="rgb(18,164,155)"/><rect x="928" y="96" width="32" height="32" fill="rgb(14,128,121)"/><rect x="0" y="128" width="32" height="32" fill="rgb(14,126,120)"/><rect x="32" y="128" width="32" height="32" fill="rgb(6,58,55)"/><rect x="64" y="128" width="32" height="32" fill="rgb(8,76,72)"/><rect x="96" y="128" width="32" height="32" fill="rgb(14,127,120)"/><rect x="128" y="128" width="32" height="32" fill="rgb(8,75,71)"/><rect x="160" y="128" width="32" height="32" fill="rgb(14,127,121)"/><rect x="192" y="128" width="32" height="32" fill="rgb(6,57,54)"/><rect x="224" y="128" width="32" height="32" fill="rgb(5,47,44)"/><rect x="256" y="128" width="32" height="32" fill="rgb(11,106,100)"/><rect x="288" y="128" width="32" height="32" fill="rgb(7,61,58)"/><rect x="320" y="128" width="32" height="32" fill="rgb(10,95,91)"/><rect x="352" y="128" width="32" height="32" fill="rgb(17,157,149)"/><rect x="384" y="128" width="32" height="32" fill="rgb(7,66,62)"/><rect x="416" y="128" width="32" height="32" fill="rgb(17,153,145)"/><rect x="448" y="128" width="32" height="32" fill="rgb(15,136,129)"/><rect x="480" y="128" width="32" height="32" fill="rgb(12,108,102)"/><rect x="512" y="128" width="32" height="32" fill="rgb(12,114,108)"/><rect x="544" y="128" width="32" height="32" fill="rgb(13,116,110)"/><rect x="576" y="128" width="32" height="32" fill="rgb(6,60,57)"/><rect x="608" y="128" width="32" height="32" fill="rgb(11,101,96)"/><rect x="640" y="128" width="32" height="32" fill="rgb(7,61,58)"/><rect x="672" y="128" width="32" height="32" fill="rgb(15,141,134)"/><rect x="704" y="128" width="32" height="32" fill="rgb(14,133,127)"/><rect x="736" y="128" width="32" height="32" fill="rgb(13,122,116)"/><rect x="768" y="128" width="32" height="32" fill="rgb(14,127,120)"/><rect x="800" y="128" width="32" height="32" fill="rgb(5,44,42)"/><rect x="832" y="128" width="32" height="32" fill="rgb(7,66,63)"/><rect x="864" y="128" width="32" height="32" fill="rgb(17,152,144)"/><rect x="896" y="128" width="32" height="32" fill="rgb(12,114,108)"/><rect x="928" y="128" width="32" height="32" fill="rgb(6,53,51)"/><rect x="0" y="160" width="32" height="32" fill="rgb(9,83,79)"/><rect x="32" y="160" width="32" height="32" fill="rgb(11,102,97)"/><rect x="64" y="160" width="32" height="32" fill="rgb(17,153,146)"/><rect x="96" y="160" width="32" height="32" fill="rgb(13,116,111)"/><rect x="128" y="160" width="32" height="32" fill="rgb(5,45,43)"/><rect x="160" y="160" width="32" height="32" fill="rgb(8,75,71)"/><rect x="192" y="160" width="32" height="32" fill="rgb(14,130,123)"/><rect x="224" y="160" width="32" height="32" fill="rgb(10,93,88)"/><rect x="256" y="160" width="32" height="32" fill="rgb(5,44,42)"/><rect x="288" y="160" width="32" height="32" fill="rgb(10,91,86)"/><rect x="320" y="160" width="32" height="32" fill="rgb(17,152,144)"/><rect x="352" y="160" width="32" height="32" fill="rgb(6,53,50)"/><rect x="384" y="160" width="32" height="32" fill="rgb(7,61,58)"/><rect x="416" y="160" width="32" height="32" fill="rgb(9,81,77)"/><rect x="448" y="160" width="32" height="32" fill="rgb(16,143,136)"/><rect x="480" y="160" width="32" height="32" fill="rgb(7,68,65)"/><rect x="512" y="160" width="32" height="32" fill="rgb(18,164,155)"/><rect x="544" y="160" width="32" height="32" fill="rgb(17,155,148)"/><rect x="576" y="160" width="32" height="32" fill="rgb(7,65,61)"/><rect x="608" y="160" width="32" height="32" fill="rgb(8,78,74)"/><rect x="640" y="160" width="32" height="32" fill="rgb(18,163,155)"/><rect x="672" y="160" width="32" height="32" fill="rgb(14,129,122)"/><rect x="704" y="160" width="32" height="32" fill="rgb(18,165,157)"/><rect x="736" y="160" width="32" height="32" fill="rgb(9,80,76)"/><rect x="768" y="160" width="32" height="32" fill="rgb(15,137,130)"/><rect x="800" y="160" width="32" height="32" fill="rgb(12,111,106)"/><rect x="832" y="160" width="32" height="32" fill="rgb(10,93,88)"/><rect x="864" y="160" width="32" height="32" fill="rgb(10,92,87)"/><rect x="896" y="160" width="32" height="32" fill="rgb(7,68,65)"/><rect x="928" y="160" width="32" height="32" fill="rgb(8,76,72)"/><rect x="0" y="192" width="32" height="32" fill="rgb(12,112,106)"/><rect x="32" y="192" width="32" height="32" fill="rgb(13,119,113)"/><rect x="64" y="192" width="32" height="32" fill="rgb(18,165,157)"/><rect x="96" y="192" width="32" height="32" fill="rgb(15,134,127)"/><rect x="128" y="192" width="32" height="32" fill="rgb(10,90,85)"/><rect x="160" y="192" width="32" height="32" fill="rgb(16,151,143)"/><rect x="192" y="192" width="32" height="32" fill="rgb(10,96,91)"/><rect x="224" y="192" width="32" height="32" fill="rgb(13,118,112)"/><rect x="256" y="192" width="32" height="32" fill="rgb(7,62,59)"/><rect x="288" y="192" width="32" height="32" fill="rgb(13,117,111)"/><rect x="320" y="192" width="32" height="32" fill="rgb(14,126,120)"/><rect x="352" y="192" width="32" height="32" fill="rgb(12,108,103)"/><rect x="384" y="192" width="32" height="32" fill="rgb(5,42,40)"/><rect x="416" y="192" width="32" height="32" fill="rgb(17,154,146)"/><rect x="448" y="192" width="32" height="32" fill="rgb(9,87,83)"/><rect x="480" y="192" width="32" height="32" fill="rgb(17,156,148)"/><rect x="512" y="192" width="32" height="32" fill="rgb(7,64,60)"/><rect x="544" y="192" width="32" height="32" fill="rgb(17,158,150)"/><rect x="576" y="192" width="32" height="32" fill="rgb(10,91,86)"/><rect x="608" y="192" width="32" height="32" fill="rgb(7,62,59)"/><rect x="640" y="192" width="32" height="32" fill="rgb(13,121,115)"/><rect x="672" y="192" width="32" height="32" fill="rgb(13,121,115)"/><rect x="704" y="192" width="32" height="32" fill="rgb(15,142,134)"/><rect x="736" y="192" width="32" height="32" fill="rgb(14,132,125)"/><rect x="768" y="192" width="32" height="32" fill="rgb(13,121,114)"/><rect x="800" y="192" width="32" height="32" fill="rgb(8,76,72)"/><rect x="832" y="192" width="32" height="32" fill="rgb(11,102,97)"/><rect x="864" y="192" width="32" height="32" fill="rgb(18,163,155)"/><rect x="896" y="192" width="32" height="32" fill="rgb(6,57,54)"/><rect x="928" y="192" width="32" height="32" fill="rgb(18,165,156)"/><rect x="0" y="224" width="32" height="32" fill="rgb(14,124,118)"/><rect x="32" y="224" width="32" height="32" fill="rgb(9,79,75)"/><rect x="64" y="224" width="32" height="32" fill="rgb(10,94,89)"/><rect x="96" y="224" width="32" height="32" fill="rgb(11,103,98)"/><rect x="128" y="224" width="32" height="32" fill="rgb(14,131,125)"/><rect x="160" y="224" width="32" height="32" fill="rgb(8,75,71)"/><rect x="192" y="224" width="32" height="32" fill="rgb(5,49,47)"/><rect x="224" y="224" width="32" height="32" fill="rgb(11,97,92)"/><rect x="256" y="224" width="32" height="32" fill="rgb(8,77,73)"/><rect x="288" y="224" width="32" height="32" fill="rgb(18,163,154)"/><rect x="320" y="224" width="32" height="32" fill="rgb(6,54,52)"/><rect x="352" y="224" width="32" height="32" fill="rgb(11,97,92)"/><rect x="384" y="224" width="32" height="32" fill="rgb(11,105,100)"/><rect x="416" y="224" width="32" height="32" fill="rgb(10,89,85)"/><rect x="448" y="224" width="32" height="32" fill="rgb(6,55,52)"/><rect x="480" y="224" width="32" height="32" fill="rgb(7,60,57)"/><rect x="512" y="224" width="32" height="32" fill="rgb(5,44,41)"/><rect x="544" y="224" width="32" height="32" fill="rgb(13,122,115)"/><rect x="576" y="224" width="32" height="32" fill="rgb(14,132,125)"/><rect x="608" y="224" width="32" height="32" fill="rgb(12,108,103)"/><rect x="640" y="224" width="32" height="32" fill="rgb(12,110,104)"/><rect x="672" y="224" width="32" height="32" fill="rgb(13,124,118)"/><rect x="704" y="224" width="32" height="32" fill="rgb(5,47,45)"/><rect x="736" y="224" width="32" height="32" fill="rgb(12,111,106)"/><rect x="768" y="224" width="32" height="32" fill="rgb(13,115,109)"/><rect x="800" y="224" width="32" height="32" fill="rgb(5,47,45)"/><rect x="832" y="224" width="32" height="32" fill="rgb(18,161,153)"/><rect x="864" y="224" width="32" height="32" fill="rgb(12,110,104)"/><rect x="896" y="224" width="32" height="32" fill="rgb(15,138,131)"/><rect x="928" y="224" width="32" height="32" fill="rgb(16,146,139)"/><rect x="0" y="256" width="32" height="32" fill="rgb(10,93,88)"/><rect x="32" y="256" width="32" height="32" fill="rgb(15,141,133)"/><rect x="64" y="256" width="32" height="32" fill="rgb(13,120,114)"/><rect x="96" y="256" width="32" height="32" fill="rgb(10,95,91)"/><rect x="128" y="256" width="32" height="32" fill="rgb(10,91,87)"/><rect x="160" y="256" width="32" height="32" fill="rgb(10,90,85)"/><rect x="192" y="256" width="32" height="32" fill="rgb(11,99,94)"/><rect x="224" y="256" width="32" height="32" fill="rgb(15,137,130)"/><rect x="256" y="256" width="32" height="32" fill="rgb(7,61,58)"/><rect x="288" y="256" width="32" height="32" fill="rgb(12,112,106)"/><rect x="320" y="256" width="32" height="32" fill="rgb(14,126,120)"/><rect x="352" y="256" width="32" height="32" fill="rgb(8,77,73)"/><rect x="384" y="256" width="32" height="32" fill="rgb(14,129,122)"/><rect x="416" y="256" width="32" height="32" fill="rgb(11,99,94)"/><rect x="448" y="256" width="32" height="32" fill="rgb(6,56,53)"/><rect x="480" y="256" width="32" height="32" fill="rgb(15,138,131)"/><rect x="512" y="256" width="32" height="32" fill="rgb(10,90,86)"/><rect x="544" y="256" width="32" height="32" fill="rgb(7,66,63)"/><rect x="576" y="256" width="32" height="32" fill="rgb(15,136,129)"/><rect x="608" y="256" width="32" height="32" fill="rgb(11,104,99)"/><rect x="640" y="256" width="32" height="32" fill="rgb(11,105,100)"/><rect x="672" y="256" width="32" height="32" fill="rgb(15,138,131)"/><rect x="704" y="256" width="32" height="32" fill="rgb(5,49,47)"/><rect x="736" y="256" width="32" height="32" fill="rgb(15,141,133)"/><rect x="768" y="256" width="32" height="32" fill="rgb(14,128,122)"/><rect x="800" y="256" width="32" height="32" fill="rgb(8,76,72)"/><rect x="832" y="256" width="32" height="32" fill="rgb(12,109,103)"/><rect x="864" y="256" width="32" height="32" fill="rgb(18,163,155)"/><rect x="896" y="256" width="32" height="32" fill="rgb(7,67,64)"/><rect x="928" y="256" width="32" height="32" fill="rgb(6,55,52)"/><rect x="0" y="288" width="32" height="32" fill="rgb(6,52,49)"/><rect x="32" y="288" width="32" height="32" fill="rgb(13,119,113)"/><rect x="64" y="288" width="32" height="32" fill="rgb(9,87,83)"/><rect x="96" y="288" width="32" height="32" fill="rgb(8,77,73)"/><rect x="128" y="288" width="32" height="32" fill="rgb(15,140,132)"/><rect x="160" y="288" width="32" height="32" fill="rgb(13,118,112)"/><rect x="192" y="288" width="32" height="32" fill="rgb(17,158,150)"/><rect x="224" y="288" width="32" height="32" fill="rgb(10,94,89)"/><rect x="256" y="288" width="32" height="32" fill="rgb(16,147,140)"/><rect x="288" y="288" width="32" height="32" fill="rgb(8,69,66)"/><rect x="320" y="288" width="32" height="32" fill="rgb(8,78,74)"/><rect x="352" y="288" width="32" height="32" fill="rgb(13,122,116)"/><rect x="384" y="288" width="32" height="32" fill="rgb(7,63,60)"/><rect x="416" y="288" width="32" height="32" fill="rgb(16,144,137)"/><rect x="448" y="288" width="32" height="32" fill="rgb(11,105,100)"/><rect x="480" y="288" width="32" height="32" fill="rgb(10,91,86)"/><rect x="512" y="288" width="32" height="32" fill="rgb(12,111,106)"/><rect x="544" y="288" width="32" height="32" fill="rgb(14,128,121)"/><rect x="576" y="288" width="32" height="32" fill="rgb(15,140,133)"/><rect x="608" y="288" width="32" height="32" fill="rgb(8,78,74)"/><rect x="640" y="288" width="32" height="32" fill="rgb(10,90,85)"/><rect x="672" y="288" width="32" height="32" fill="rgb(16,150,142)"/><rect x="704" y="288" width="32" height="32" fill="rgb(9,86,81)"/><rect x="736" y="288" width="32" height="32" fill="rgb(8,69,66)"/><rect x="768" y="288" width="32" height="32" fill="rgb(17,158,150)"/><rect x="800" y="288" width="32" height="32" fill="rgb(9,84,80)"/><rect x="832" y="288" width="32" height="32" fill="rgb(10,88,83)"/><rect x="864" y="288" width="32" height="32" fill="rgb(11,106,100)"/><rect x="896" y="288" width="32" height="32" fill="rgb(16,143,136)"/><rect x="928" y="288" width="32" height="32" fill="rgb(7,60,57)"/><rect x="0" y="320" width="32" height="32" fill="rgb(17,160,152)"/><rect x="32" y="320" width="32" height="32" fill="rgb(16,148,140)"/><rect x="64" y="320" width="32" height="32" fill="rgb(14,130,123)"/><rect x="96" y="320" width="32" height="32" fill="rgb(5,42,40)"/><rect x="128" y="320" width="32" height="32" fill="rgb(16,148,141)"/><rect x="160" y="320" width="32" height="32" fill="rgb(8,73,69)"/><rect x="192" y="320" width="32" height="32" fill="rgb(8,76,72)"/><rect x="224" y="320" width="32" height="32" fill="rgb(15,141,134)"/><rect x="256" y="320" width="32" height="32" fill="rgb(10,91,87)"/><rect x="288" y="320" width="32" height="32" fill="rgb(18,161,153)"/><rect x="320" y="320" width="32" height="32" fill="rgb(17,160,152)"/><rect x="352" y="320" width="32" height="32" fill="rgb(13,124,118)"/><rect x="384" y="320" width="32" height="32" fill="rgb(17,152,144)"/><rect x="416" y="320" width="32" height="32" fill="rgb(7,61,58)"/><rect x="448" y="320" width="32" height="32" fill="rgb(9,86,81)"/><rect x="480" y="320" width="32" height="32" fill="rgb(8,75,72)"/><rect x="512" y="320" width="32" height="32" fill="rgb(17,153,145)"/><rect x="544" y="320" width="32" height="32" fill="rgb(10,92,87)"/><rect x="576" y="320" width="32" height="32" fill="rgb(10,94,90)"/><rect x="608" y="320" width="32" height="32" fill="rgb(18,165,156)"/><rect x="640" y="320" width="32" height="32" fill="rgb(12,115,109)"/><rect x="672" y="320" width="32" height="32" fill="rgb(11,102,97)"/><rect x="704" y="320" width="32" height="32" fill="rgb(10,94,89)"/><rect x="736" y="320" width="32" height="32" fill="rgb(17,155,147)"/><rect x="768" y="320" width="32" height="32" fill="rgb(5,43,40)"/><rect x="800" y="320" width="32" height="32" fill="rgb(10,90,86)"/><rect x="832" y="320" width="32" height="32" fill="rgb(11,101,96)"/><rect x="864" y="320" width="32" height="32" fill="rgb(16,152,144)"/><rect x="896" y="320" width="32" height="32" fill="rgb(16,145,138)"/><rect x="928" y="320" width="32" height="32" fill="rgb(15,135,128)"/><rect x="0" y="352" width="32" height="32" fill="rgb(15,136,129)"/><rect x="32" y="352" width="32" height="32" fill="rgb(7,62,59)"/><rect x="64" y="352" width="32" height="32" fill="rgb(13,121,115)"/><rect x="96" y="352" width="32" height="32" fill="rgb(18,164,155)"/><rect x="128" y="352" width="32" height="32" fill="rgb(16,144,137)"/><rect x="160" y="352" width="32" height="32" fill="rgb(14,130,124)"/><rect x="192" y="352" width="32" height="32" fill="rgb(14,131,125)"/><rect x="224" y="352" width="32" height="32" fill="rgb(12,108,103)"/><rect x="256" y="352" width="32" height="32" fill="rgb(12,112,106)"/><rect x="288" y="352" width="32" height="32" fill="rgb(6,52,49)"/><rect x="320" y="352" width="32" height="32" fill="rgb(13,123,116)"/><rect x="352" y="352" width="32" height="32" fill="rgb(16,144,137)"/><rect x="384" y="352" width="32" height="32" fill="rgb(18,163,155)"/><rect x="416" y="352" width="32" height="32" fill="rgb(12,107,101)"/><rect x="448" y="352" width="32" height="32" fill="rgb(14,129,123)"/><rect x="480" y="352" width="32" height="32" fill="rgb(7,69,65)"/><rect x="512" y="352" width="32" height="32" fill="rgb(8,70,66)"/><rect x="544" y="352" width="32" height="32" fill="rgb(17,154,146)"/><rect x="576" y="352" width="32" height="32" fill="rgb(5,47,45)"/><rect x="608" y="352" width="32" height="32" fill="rgb(6,52,49)"/><rect x="640" y="352" width="32" height="32" fill="rgb(16,147,140)"/><rect x="672" y="352" width="32" height="32" fill="rgb(5,43,41)"/><rect x="704" y="352" width="32" height="32" fill="rgb(7,62,59)"/><rect x="736" y="352" width="32" height="32" fill="rgb(15,142,135)"/><rect x="768" y="352" width="32" height="32" fill="rgb(12,110,104)"/><rect x="800" y="352" width="32" height="32" fill="rgb(17,159,151)"/><rect x="832" y="352" width="32" height="32" fill="rgb(10,94,89)"/><rect x="864" y="352" width="32" height="32" fill="rgb(11,99,94)"/><rect x="896" y="352" width="32" height="32" fill="rgb(9,81,77)"/><rect x="928" y="352" width="32" height="32" fill="rgb(14,129,123)"/><rect x="0" y="384" width="32" height="32" fill="rgb(11,97,93)"/><rect x="32" y="384" width="32" height="32" fill="rgb(5,48,46)"/><rect x="64" y="384" width="32" height="32" fill="rgb(6,54,52)"/><rect x="96" y="384" width="32" height="32" fill="rgb(7,68,65)"/><rect x="128" y="384" width="32" height="32" fill="rgb(12,108,103)"/><rect x="160" y="384" width="32" height="32" fill="rgb(17,155,148)"/><rect x="192" y="384" width="32" height="32" fill="rgb(9,81,77)"/><rect x="224" y="384" width="32" height="32" fill="rgb(16,145,137)"/><rect x="256" y="384" width="32" height="32" fill="rgb(8,69,66)"/><rect x="288" y="384" width="32" height="32" fill="rgb(6,56,54)"/><rect x="320" y="384" width="32" height="32" fill="rgb(8,73,69)"/><rect x="352" y="384" width="32" height="32" fill="rgb(6,53,50)"/><rect x="384" y="384" width="32" height="32" fill="rgb(10,91,86)"/><rect x="416" y="384" width="32" height="32" fill="rgb(12,113,108)"/><rect x="448" y="384" width="32" height="32" fill="rgb(16,149,141)"/><rect x="480" y="384" width="32" height="32" fill="rgb(9,81,77)"/><rect x="512" y="384" width="32" height="32" fill="rgb(7,64,61)"/><rect x="544" y="384" width="32" height="32" fill="rgb(13,119,113)"/><rect x="576" y="384" width="32" height="32" fill="rgb(15,141,134)"/><rect x="608" y="384" width="32" height="32" fill="rgb(15,136,129)"/><rect x="640" y="384" width="32" height="32" fill="rgb(8,78,74)"/><rect x="672" y="384" width="32" height="32" fill="rgb(15,134,127)"/><rect x="704" y="384" width="32" height="32" fill="rgb(9,87,82)"/><rect x="736" y="384" width="32" height="32" fill="rgb(18,161,153)"/><rect x="768" y="384" width="32" height="32" fill="rgb(13,120,114)"/><rect x="800" y="384" width="32" height="32" fill="rgb(17,155,147)"/><rect x="832" y="384" width="32" height="32" fill="rgb(17,154,146)"/><rect x="864" y="384" width="32" height="32" fill="rgb(5,49,47)"/><rect x="896" y="384" width="32" height="32" fill="rgb(14,131,124)"/><rect x="928" y="384" width="32" height="32" fill="rgb(14,125,119)"/><rect x="0" y="416" width="32" height="32" fill="rgb(9,86,82)"/><rect x="32" y="416" width="32" height="32" fill="rgb(9,87,83)"/><rect x="64" y="416" width="32" height="32" fill="rgb(8,71,67)"/><rect x="96" y="416" width="32" height="32" fill="rgb(15,136,129)"/><rect x="128" y="416" width="32" height="32" fill="rgb(15,139,132)"/><rect x="160" y="416" width="32" height="32" fill="rgb(11,101,96)"/><rect x="192" y="416" width="32" height="32" fill="rgb(16,143,136)"/><rect x="224" y="416" width="32" height="32" fill="rgb(5,50,47)"/><rect x="256" y="416" width="32" height="32" fill="rgb(8,78,74)"/><rect x="288" y="416" width="32" height="32" fill="rgb(15,139,132)"/><rect x="320" y="416" width="32" height="32" fill="rgb(5,47,45)"/><rect x="352" y="416" width="32" height="32" fill="rgb(5,48,45)"/><rect x="384" y="416" width="32" height="32" fill="rgb(7,64,61)"/><rect x="416" y="416" width="32" height="32" fill="rgb(10,93,89)"/><rect x="448" y="416" width="32" height="32" fill="rgb(15,134,128)"/><rect x="480" y="416" width="32" height="32" fill="rgb(16,151,143)"/><rect x="512" y="416" width="32" height="32" fill="rgb(17,153,145)"/><rect x="544" y="416" width="32" height="32" fill="rgb(6,59,56)"/><rect x="576" y="416" width="32" height="32" fill="rgb(12,114,108)"/><rect x="608" y="416" width="32" height="32" fill="rgb(13,119,113)"/><rect x="640" y="416" width="32" height="32" fill="rgb(13,116,110)"/><rect x="672" y="416" width="32" height="32" fill="rgb(14,128,122)"/><rect x="704" y="416" width="32" height="32" fill="rgb(15,141,134)"/><rect x="736" y="416" width="32" height="32" fill="rgb(12,112,106)"/><rect x="768" y="416" width="32" height="32" fill="rgb(15,139,132)"/><rect x="800" y="416" width="32" height="32" fill="rgb(13,118,112)"/><rect x="832" y="416" width="32" height="32" fill="rgb(5,45,43)"/><rect x="864" y="416" width="32" height="32" fill="rgb(18,162,154)"/><rect x="896" y="416" width="32" height="32" fill="rgb(5,43,41)"/><rect x="928" y="416" width="32" height="32" fill="rgb(15,140,133)"/><rect x="0" y="448" width="32" height="32" fill="rgb(11,104,98)"/><rect x="32" y="448" width="32" height="32" fill="rgb(18,165,156)"/><rect x="64" y="448" width="32" height="32" fill="rgb(18,165,156)"/><rect x="96" y="448" width="32" height="32" fill="rgb(11,101,96)"/><rect x="128" y="448" width="32" height="32" fill="rgb(15,134,127)"/><rect x="160" y="448" width="32" height="32" fill="rgb(16,143,136)"/><rect x="192" y="448" width="32" height="32" fill="rgb(14,126,119)"/><rect x="224" y="448" width="32" height="32" fill="rgb(15,136,129)"/><rect x="256" y="448" width="32" height="32" fill="rgb(6,60,57)"/><rect x="288" y="448" width="32" height="32" fill="rgb(5,50,47)"/><rect x="320" y="448" width="32" height="32" fill="rgb(17,154,146)"/><rect x="352" y="448" width="32" height="32" fill="rgb(9,86,82)"/><rect x="384" y="448" width="32" height="32" fill="rgb(10,91,87)"/><rect x="416" y="448" width="32" height="32" fill="rgb(12,115,109)"/><rect x="448" y="448" width="32" height="32" fill="rgb(11,98,93)"/><rect x="480" y="448" width="32" height="32" fill="rgb(17,154,147)"/><rect x="512" y="448" width="32" height="32" fill="rgb(15,136,129)"/><rect x="544" y="448" width="32" height="32" fill="rgb(15,138,131)"/><rect x="576" y="448" width="32" height="32" fill="rgb(16,144,136)"/><rect x="608" y="448" width="32" height="32" fill="rgb(11,100,95)"/><rect x="640" y="448" width="32" height="32" fill="rgb(5,48,45)"/><rect x="672" y="448" width="32" height="32" fill="rgb(11,105,99)"/><rect x="704" y="448" width="32" height="32" fill="rgb(7,66,63)"/><rect x="736" y="448" width="32" height="32" fill="rgb(7,67,64)"/><rect x="768" y="448" width="32" height="32" fill="rgb(7,67,64)"/><rect x="800" y="448" width="32" height="32" fill="rgb(7,62,59)"/><rect x="832" y="448" width="32" height="32" fill="rgb(13,117,111)"/><rect x="864" y="448" width="32" height="32" fill="rgb(13,120,113)"/><rect x="896" y="448" width="32" height="32" fill="rgb(10,94,89)"/><rect x="928" y="448" width="32" height="32" fill="rgb(13,118,112)"/><rect x="0" y="480" width="32" height="32" fill="rgb(9,80,76)"/><rect x="32" y="480" width="32" height="32" fill="rgb(7,65,62)"/><rect x="64" y="480" width="32" height="32" fill="rgb(15,137,130)"/><rect x="96" y="480" width="32" height="32" fill="rgb(11,102,97)"/><rect x="128" y="480" width="32" height="32" fill="rgb(15,142,135)"/><rect x="160" y="480" width="32" height="32" fill="rgb(6,53,50)"/><rect x="192" y="480" width="32" height="32" fill="rgb(16,146,139)"/><rect x="224" y="480" width="32" height="32" fill="rgb(12,115,109)"/><rect x="256" y="480" width="32" height="32" fill="rgb(13,118,112)"/><rect x="288" y="480" width="32" height="32" fill="rgb(16,147,140)"/><rect x="320" y="480" width="32" height="32" fill="rgb(5,50,48)"/><rect x="352" y="480" width="32" height="32" fill="rgb(5,44,42)"/><rect x="384" y="480" width="32" height="32" fill="rgb(6,59,56)"/><rect x="416" y="480" width="32" height="32" fill="rgb(10,89,84)"/><rect x="448" y="480" width="32" height="32" fill="rgb(5,46,43)"/><rect x="480" y="480" width="32" height="32" fill="rgb(10,96,91)"/><rect x="512" y="480" width="32" height="32" fill="rgb(7,63,60)"/><rect x="544" y="480" width="32" height="32" fill="rgb(9,80,76)"/><rect x="576" y="480" width="32" height="32" fill="rgb(18,164,155)"/><rect x="608" y="480" width="32" height="32" fill="rgb(9,86,82)"/><rect x="640" y="480" width="32" height="32" fill="rgb(9,84,80)"/><rect x="672" y="480" width="32" height="32" fill="rgb(14,133,126)"/><rect x="704" y="480" width="32" height="32" fill="rgb(9,84,79)"/><rect x="736" y="480" width="32" height="32" fill="rgb(9,81,77)"/><rect x="768" y="480" width="32" height="32" fill="rgb(11,102,97)"/><rect x="800" y="480" width="32" height="32" fill="rgb(12,110,104)"/><rect x="832" y="480" width="32" height="32" fill="rgb(17,158,150)"/><rect x="864" y="480" width="32" height="32" fill="rgb(7,64,61)"/><rect x="896" y="480" width="32" height="32" fill="rgb(18,164,155)"/><rect x="928" y="480" width="32" height="32" fill="rgb(5,46,43)"/><rect x="0" y="512" width="32" height="32" fill="rgb(11,99,94)"/><rect x="32" y="512" width="32" height="32" fill="rgb(7,63,60)"/><rect x="64" y="512" width="32" height="32" fill="rgb(6,53,50)"/><rect x="96" y="512" width="32" height="32" fill="rgb(15,139,132)"/><rect x="128" y="512" width="32" height="32" fill="rgb(13,118,112)"/><rect x="160" y="512" width="32" height="32" fill="rgb(11,98,93)"/><rect x="192" y="512" width="32" height="32" fill="rgb(12,106,101)"/><rect x="224" y="512" width="32" height="32" fill="rgb(15,136,129)"/><rect x="256" y="512" width="32" height="32" fill="rgb(17,152,144)"/><rect x="288" y="512" width="32" height="32" fill="rgb(13,117,111)"/><rect x="320" y="512" width="32" height="32" fill="rgb(15,136,129)"/><rect x="352" y="512" width="32" height="32" fill="rgb(11,97,92)"/><rect x="384" y="512" width="32" height="32" fill="rgb(5,42,40)"/><rect x="416" y="512" width="32" height="32" fill="rgb(16,143,136)"/><rect x="448" y="512" width="32" height="32" fill="rgb(18,163,155)"/><rect x="480" y="512" width="32" height="32" fill="rgb(10,93,88)"/><rect x="512" y="512" width="32" height="32" fill="rgb(7,68,65)"/><rect x="544" y="512" width="32" height="32" fill="rgb(12,115,109)"/><rect x="576" y="512" width="32" height="32" fill="rgb(6,51,48)"/><rect x="608" y="512" width="32" height="32" fill="rgb(11,99,94)"/><rect x="640" y="512" width="32" height="32" fill="rgb(11,99,94)"/><rect x="672" y="512" width="32" height="32" fill="rgb(18,164,156)"/><rect x="704" y="512" width="32" height="32" fill="rgb(17,161,153)"/><rect x="736" y="512" width="32" height="32" fill="rgb(16,145,138)"/><rect x="768" y="512" width="32" height="32" fill="rgb(10,96,91)"/><rect x="800" y="512" width="32" height="32" fill="rgb(18,162,154)"/><rect x="832" y="512" width="32" height="32" fill="rgb(9,87,82)"/><rect x="864" y="512" width="32" height="32" fill="rgb(6,53,50)"/><rect x="896" y="512" width="32" height="32" fill="rgb(9,83,79)"/><rect x="928" y="512" width="32" height="32" fill="rgb(12,110,104)"/><rect x="0" y="544" width="32" height="32" fill="rgb(9,86,81)"/><rect x="32" y="544" width="32" height="32" fill="rgb(9,82,78)"/><rect x="64" y="544" width="32" height="32" fill="rgb(17,152,145)"/><rect x="96" y="544" width="32" height="32" fill="rgb(7,61,58)"/><rect x="128" y="544" width="32" height="32" fill="rgb(11,97,92)"/><rect x="160" y="544" width="32" height="32" fill="rgb(6,59,56)"/><rect x="192" y="544" width="32" height="32" fill="rgb(17,161,153)"/><rect x="224" y="544" width="32" height="32" fill="rgb(10,96,92)"/><rect x="256" y="544" width="32" height="32" fill="rgb(6,54,52)"/><rect x="288" y="544" width="32" height="32" fill="rgb(8,77,73)"/><rect x="320" y="544" width="32" height="32" fill="rgb(17,159,151)"/><rect x="352" y="544" width="32" height="32" fill="rgb(7,63,60)"/><rect x="384" y="544" width="32" height="32" fill="rgb(17,159,151)"/><rect x="416" y="544" width="32" height="32" fill="rgb(7,69,65)"/><rect x="448" y="544" width="32" height="32" fill="rgb(7,65,61)"/><rect x="480" y="544" width="32" height="32" fill="rgb(13,122,116)"/><rect x="512" y="544" width="32" height="32" fill="rgb(16,143,136)"/><rect x="544" y="544" width="32" height="32" fill="rgb(12,112,106)"/><rect x="576" y="544" width="32" height="32" fill="rgb(17,159,151)"/><rect x="608" y="544" width="32" height="32" fill="rgb(13,124,118)"/><rect x="640" y="544" width="32" height="32" fill="rgb(8,74,70)"/><rect x="672" y="544" width="32" height="32" fill="rgb(5,50,47)"/><rect x="704" y="544" width="32" height="32" fill="rgb(12,110,104)"/><rect x="736" y="544" width="32" height="32" fill="rgb(10,88,84)"/><rect x="768" y="544" width="32" height="32" fill="rgb(8,76,72)"/><rect x="800" y="544" width="32" height="32" fill="rgb(9,80,76)"/><rect x="832" y="544" width="32" height="32" fill="rgb(5,45,42)"/><rect x="864" y="544" width="32" height="32" fill="rgb(8,73,69)"/><rect x="896" y="544" width="32" height="32" fill="rgb(14,128,121)"/><rect x="928" y="544" width="32" height="32" fill="rgb(15,134,127)"/><rect x="0" y="576" width="32" height="32" fill="rgb(13,116,110)"/><rect x="32" y="576" width="32" height="32" fill="rgb(10,89,85)"/><rect x="64" y="576" width="32" height="32" fill="rgb(7,62,59)"/><rect x="96" y="576" width="32" height="32" fill="rgb(6,53,50)"/><rect x="128" y="576" width="32" height="32" fill="rgb(14,132,125)"/><rect x="160" y="576" width="32" height="32" fill="rgb(8,76,72)"/><rect x="192" y="576" width="32" height="32" fill="rgb(8,70,66)"/><rect x="224" y="576" width="32" height="32" fill="rgb(14,128,121)"/><rect x="256" y="576" width="32" height="32" fill="rgb(12,111,105)"/><rect x="288" y="576" width="32" height="32" fill="rgb(16,147,140)"/><rect x="320" y="576" width="32" height="32" fill="rgb(7,66,63)"/><rect x="352" y="576" width="32" height="32" fill="rgb(10,90,85)"/><rect x="384" y="576" width="32" height="32" fill="rgb(7,66,63)"/><rect x="416" y="576" width="32" height="32" fill="rgb(14,130,123)"/><rect x="448" y="576" width="32" height="32" fill="rgb(17,161,153)"/><rect x="480" y="576" width="32" height="32" fill="rgb(12,108,103)"/><rect x="512" y="576" width="32" height="32" fill="rgb(10,90,86)"/><rect x="544" y="576" width="32" height="32" fill="rgb(12,106,101)"/><rect x="576" y="576" width="32" height="32" fill="rgb(16,144,137)"/><rect x="608" y="576" width="32" height="32" fill="rgb(16,145,138)"/><rect x="640" y="576" width="32" height="32" fill="rgb(6,53,50)"/><rect x="672" y="576" width="32" height="32" fill="rgb(8,70,66)"/><rect x="704" y="576" width="32" height="32" fill="rgb(16,145,138)"/><rect x="736" y="576" width="32" height="32" fill="rgb(6,51,48)"/><rect x="768" y="576" width="32" height="32" fill="rgb(17,153,145)"/><rect x="800" y="576" width="32" height="32" fill="rgb(17,160,152)"/><rect x="832" y="576" width="32" height="32" fill="rgb(8,75,71)"/><rect x="864" y="576" width="32" height="32" fill="rgb(6,51,49)"/><rect x="896" y="576" width="32" height="32" fill="rgb(16,143,136)"/><rect x="928" y="576" width="32" height="32" fill="rgb(7,68,65)"/><rect x="0" y="608" width="32" height="32" fill="rgb(5,47,44)"/><rect x="32" y="608" width="32" height="32" fill="rgb(11,100,95)"/><rect x="64" y="608" width="32" height="32" fill="rgb(17,158,150)"/><rect x="96" y="608" width="32" height="32" fill="rgb(15,138,131)"/><rect x="128" y="608" width="32" height="32" fill="rgb(9,81,77)"/><rect x="160" y="608" width="32" height="32" fill="rgb(8,78,74)"/><rect x="192" y="608" width="32" height="32" fill="rgb(12,113,107)"/><rect x="224" y="608" width="32" height="32" fill="rgb(15,135,128)"/><rect x="256" y="608" width="32" height="32" fill="rgb(8,73,69)"/><rect x="288" y="608" width="32" height="32" fill="rgb(11,105,99)"/><rect x="320" y="608" width="32" height="32" fill="rgb(16,144,137)"/><rect x="352" y="608" width="32" height="32" fill="rgb(7,63,60)"/><rect x="384" y="608" width="32" height="32" fill="rgb(13,119,113)"/><rect x="416" y="608" width="32" height="32" fill="rgb(6,57,54)"/><rect x="448" y="608" width="32" height="32" fill="rgb(16,147,139)"/><rect x="480" y="608" width="32" height="32" fill="rgb(12,113,107)"/><rect x="512" y="608" width="32" height="32" fill="rgb(10,93,89)"/><rect x="544" y="608" width="32" height="32" fill="rgb(5,43,41)"/><rect x="576" y="608" width="32" height="32" fill="rgb(17,158,150)"/><rect x="608" y="608" width="32" height="32" fill="rgb(17,155,147)"/><rect x="640" y="608" width="32" height="32" fill="rgb(14,132,125)"/><rect x="672" y="608" width="32" height="32" fill="rgb(16,148,141)"/><rect x="704" y="608" width="32" height="32" fill="rgb(12,111,105)"/><rect x="736" y="608" width="32" height="32" fill="rgb(12,107,101)"/><rect x="768" y="608" width="32" height="32" fill="rgb(7,65,62)"/><rect x="800" y="608" width="32" height="32" fill="rgb(12,113,107)"/><rect x="832" y="608" width="32" height="32" fill="rgb(5,44,42)"/><rect x="864" y="608" width="32" height="32" fill="rgb(7,60,57)"/><rect x="896" y="608" width="32" height="32" fill="rgb(14,131,125)"/><rect x="928" y="608" width="32" height="32" fill="rgb(9,86,82)"/><rect x="0" y="640" width="32" height="32" fill="rgb(12,111,105)"/><rect x="32" y="640" width="32" height="32" fill="rgb(11,105,99)"/><rect x="64" y="640" width="32" height="32" fill="rgb(10,90,85)"/><rect x="96" y="640" width="32" height="32" fill="rgb(9,81,77)"/><rect x="128" y="640" width="32" height="32" fill="rgb(9,83,79)"/><rect x="160" y="640" width="32" height="32" fill="rgb(9,87,82)"/><rect x="192" y="640" width="32" height="32" fill="rgb(13,119,113)"/><rect x="224" y="640" width="32" height="32" fill="rgb(6,51,49)"/><rect x="256" y="640" width="32" height="32" fill="rgb(6,56,53)"/><rect x="288" y="640" width="32" height="32" fill="rgb(7,69,65)"/><rect x="320" y="640" width="32" height="32" fill="rgb(13,116,110)"/><rect x="352" y="640" width="32" height="32" fill="rgb(15,141,134)"/><rect x="384" y="640" width="32" height="32" fill="rgb(9,86,82)"/><rect x="416" y="640" width="32" height="32" fill="rgb(17,156,148)"/><rect x="448" y="640" width="32" height="32" fill="rgb(9,86,82)"/><rect x="480" y="640" width="32" height="32" fill="rgb(14,133,126)"/><rect x="512" y="640" width="32" height="32" fill="rgb(15,135,128)"/><rect x="544" y="640" width="32" height="32" fill="rgb(18,165,157)"/><rect x="576" y="640" width="32" height="32" fill="rgb(15,141,134)"/><rect x="608" y="640" width="32" height="32" fill="rgb(10,93,88)"/><rect x="640" y="640" width="32" height="32" fill="rgb(18,162,154)"/><rect x="672" y="640" width="32" height="32" fill="rgb(18,163,154)"/><rect x="704" y="640" width="32" height="32" fill="rgb(9,80,76)"/><rect x="736" y="640" width="32" height="32" fill="rgb(14,131,124)"/><rect x="768" y="640" width="32" height="32" fill="rgb(11,98,93)"/><rect x="800" y="640" width="32" height="32" fill="rgb(18,162,154)"/><rect x="832" y="640" width="32" height="32" fill="rgb(14,130,123)"/><rect x="864" y="640" width="32" height="32" fill="rgb(7,61,58)"/><rect x="896" y="640" width="32" height="32" fill="rgb(5,47,45)"/><rect x="928" y="640" width="32" height="32" fill="rgb(12,115,109)"/><rect x="0" y="672" width="32" height="32" fill="rgb(16,146,138)"/><rect x="32" y="672" width="32" height="32" fill="rgb(10,94,89)"/><rect x="64" y="672" width="32" height="32" fill="rgb(15,134,127)"/><rect x="96" y="672" width="32" height="32" fill="rgb(17,158,150)"/><rect x="128" y="672" width="32" height="32" fill="rgb(11,98,93)"/><rect x="160" y="672" width="32" height="32" fill="rgb(11,101,96)"/><rect x="192" y="672" width="32" height="32" fill="rgb(16,149,141)"/><rect x="224" y="672" width="32" height="32" fill="rgb(15,134,127)"/><rect x="256" y="672" width="32" height="32" fill="rgb(9,79,75)"/><rect x="288" y="672" width="32" height="32" fill="rgb(6,52,49)"/><rect x="320" y="672" width="32" height="32" fill="rgb(8,70,67)"/><rect x="352" y="672" width="32" height="32" fill="rgb(16,152,144)"/><rect x="384" y="672" width="32" height="32" fill="rgb(11,98,94)"/><rect x="416" y="672" width="32" height="32" fill="rgb(8,71,67)"/><rect x="448" y="672" width="32" height="32" fill="rgb(8,78,74)"/><rect x="480" y="672" width="32" height="32" fill="rgb(16,151,143)"/><rect x="512" y="672" width="32" height="32" fill="rgb(5,42,40)"/><rect x="544" y="672" width="32" height="32" fill="rgb(13,122,116)"/><rect x="576" y="672" width="32" height="32" fill="rgb(11,100,95)"/><rect x="608" y="672" width="32" height="32" fill="rgb(17,153,145)"/><rect x="640" y="672" width="32" height="32" fill="rgb(16,145,137)"/><rect x="672" y="672" width="32" height="32" fill="rgb(12,114,109)"/><rect x="704" y="672" width="32" height="32" fill="rgb(17,155,147)"/><rect x="736" y="672" width="32" height="32" fill="rgb(16,146,139)"/><rect x="768" y="672" width="32" height="32" fill="rgb(8,73,69)"/><rect x="800" y="672" width="32" height="32" fill="rgb(17,159,151)"/><rect x="832" y="672" width="32" height="32" fill="rgb(17,153,146)"/><rect x="864" y="672" width="32" height="32" fill="rgb(9,84,80)"/><rect x="896" y="672" width="32" height="32" fill="rgb(17,154,146)"/><rect x="928" y="672" width="32" height="32" fill="rgb(17,160,151)"/><rect x="0" y="704" width="32" height="32" fill="rgb(14,130,123)"/><rect x="32" y="704" width="32" height="32" fill="rgb(7,67,64)"/><rect x="64" y="704" width="32" height="32" fill="rgb(16,147,139)"/><rect x="96" y="704" width="32" height="32" fill="rgb(16,146,139)"/><rect x="128" y="704" width="32" height="32" fill="rgb(18,163,155)"/><rect x="160" y="704" width="32" height="32" fill="rgb(18,162,154)"/><rect x="192" y="704" width="32" height="32" fill="rgb(14,124,118)"/><rect x="224" y="704" width="32" height="32" fill="rgb(5,45,43)"/><rect x="256" y="704" width="32" height="32" fill="rgb(11,101,96)"/><rect x="288" y="704" width="32" height="32" fill="rgb(10,89,84)"/><rect x="320" y="704" width="32" height="32" fill="rgb(10,90,85)"/><rect x="352" y="704" width="32" height="32" fill="rgb(7,61,58)"/><rect x="384" y="704" width="32" height="32" fill="rgb(8,73,70)"/><rect x="416" y="704" width="32" height="32" fill="rgb(14,128,121)"/><rect x="448" y="704" width="32" height="32" fill="rgb(9,83,78)"/><rect x="480" y="704" width="32" height="32" fill="rgb(7,65,62)"/><rect x="512" y="704" width="32" height="32" fill="rgb(16,150,142)"/><rect x="544" y="704" width="32" height="32" fill="rgb(6,51,49)"/><rect x="576" y="704" width="32" height="32" fill="rgb(10,90,85)"/><rect x="608" y="704" width="32" height="32" fill="rgb(7,66,62)"/><rect x="640" y="704" width="32" height="32" fill="rgb(13,118,112)"/><rect x="672" y="704" width="32" height="32" fill="rgb(13,123,117)"/><rect x="704" y="704" width="32" height="32" fill="rgb(6,51,48)"/><rect x="736" y="704" width="32" height="32" fill="rgb(6,51,48)"/><rect x="768" y="704" width="32" height="32" fill="rgb(10,95,90)"/><rect x="800" y="704" width="32" height="32" fill="rgb(13,117,111)"/><rect x="832" y="704" width="32" height="32" fill="rgb(5,48,46)"/><rect x="864" y="704" width="32" height="32" fill="rgb(13,123,117)"/><rect x="896" y="704" width="32" height="32" fill="rgb(8,74,70)"/><rect x="928" y="704" width="32" height="32" fill="rgb(18,164,156)"/></g>
  <rect x="0" y="0" width="960" height="720" fill="rgba(10,10,14,0.46)"/>
  <g fill="none" stroke-linecap="butt">
    <path d="M3,717 L3,3 L957,3" stroke="rgba(255,255,255,0.32)" stroke-width="6"/>
    <path d="M957,3 L957,717 L3,717" stroke="rgba(0,0,0,0.5)" stroke-width="6"/>
  </g>
  <rect x="88" y="196" width="784" height="328" fill="rgba(0,0,0,0.6)"/>
  <g fill="none" stroke-linecap="butt">
    <path d="M88,524 L88,196 L872,196" stroke="rgba(255,255,255,0.32)" stroke-width="7"/>
    <path d="M872,196 L872,524 L88,524" stroke="rgba(0,0,0,0.5)" stroke-width="7"/>
  </g>
  <text x="480" y="326" font-family="'Minercraftory', 'Minecraft', ui-monospace, Menlo, Consolas, monospace" font-size="48" font-weight="700"
    fill="#ffffff" text-anchor="middle" letter-spacing="4"
    style="paint-order:stroke" stroke="rgba(0,0,0,0.7)" stroke-width="6">截图占位图 02</text>
  <text x="480" y="390" font-family="'Minercraftory', 'Minecraft', ui-monospace, Menlo, Consolas, monospace" font-size="30" font-weight="400"
    fill="rgba(255,255,255,0.85)" text-anchor="middle" letter-spacing="0"
    style="paint-order:stroke" stroke="rgba(0,0,0,0.7)" stroke-width="4">摄影协会</text>
  <text x="480" y="676" font-family="'Minercraftory', 'Minecraft', ui-monospace, Menlo, Consolas, monospace" font-size="22" font-weight="400"
    fill="rgba(255,255,255,0.45)" text-anchor="middle" letter-spacing="0"
    style="paint-order:stroke" stroke="rgba(0,0,0,0.7)" stroke-width="3">960×720 · 替换 static/img/clubs/photography/shot-2.*</text>
</svg>
