<svg xmlns="http://www.w3.org/2000/svg" viewBox="0 0 960 720" width="960" height="720" role="img" aria-label="X动漫联盟协会 截图占位图 01">
  <title>X动漫联盟协会 · 截图占位图 01</title>
  <rect x="0" y="0" width="960" height="720" fill="#23232a"/>
  <g opacity="0.55" shape-rendering="crispEdges"><rect x="0" y="0" width="32" height="32" fill="rgb(225,88,175)"/><rect x="32" y="0" width="32" height="32" fill="rgb(83,33,64)"/><rect x="64" y="0" width="32" height="32" fill="rgb(207,81,161)"/><rect x="96" y="0" width="32" height="32" fill="rgb(236,93,183)"/><rect x="128" y="0" width="32" height="32" fill="rgb(68,27,53)"/><rect x="160" y="0" width="32" height="32" fill="rgb(191,75,149)"/><rect x="192" y="0" width="32" height="32" fill="rgb(114,45,89)"/><rect x="224" y="0" width="32" height="32" fill="rgb(218,86,169)"/><rect x="256" y="0" width="32" height="32" fill="rgb(122,48,95)"/><rect x="288" y="0" width="32" height="32" fill="rgb(143,56,111)"/><rect x="320" y="0" width="32" height="32" fill="rgb(206,81,160)"/><rect x="352" y="0" width="32" height="32" fill="rgb(179,70,139)"/><rect x="384" y="0" width="32" height="32" fill="rgb(154,61,120)"/><rect x="416" y="0" width="32" height="32" fill="rgb(180,71,140)"/><rect x="448" y="0" width="32" height="32" fill="rgb(106,42,82)"/><rect x="480" y="0" width="32" height="32" fill="rgb(234,92,181)"/><rect x="512" y="0" width="32" height="32" fill="rgb(158,62,122)"/><rect x="544" y="0" width="32" height="32" fill="rgb(204,80,158)"/><rect x="576" y="0" width="32" height="32" fill="rgb(71,28,55)"/><rect x="608" y="0" width="32" height="32" fill="rgb(194,76,150)"/><rect x="640" y="0" width="32" height="32" fill="rgb(89,35,69)"/><rect x="672" y="0" width="32" height="32" fill="rgb(208,82,162)"/><rect x="704" y="0" width="32" height="32" fill="rgb(188,74,146)"/><rect x="736" y="0" width="32" height="32" fill="rgb(205,80,159)"/><rect x="768" y="0" width="32" height="32" fill="rgb(203,80,158)"/><rect x="800" y="0" width="32" height="32" fill="rgb(213,84,165)"/><rect x="832" y="0" width="32" height="32" fill="rgb(68,27,53)"/><rect x="864" y="0" width="32" height="32" fill="rgb(124,49,96)"/><rect x="896" y="0" width="32" height="32" fill="rgb(113,44,88)"/><rect x="928" y="0" width="32" height="32" fill="rgb(193,76,150)"/><rect x="0" y="32" width="32" height="32" fill="rgb(225,88,175)"/><rect x="32" y="32" width="32" height="32" fill="rgb(150,59,116)"/><rect x="64" y="32" width="32" height="32" fill="rgb(179,70,139)"/><rect x="96" y="32" width="32" height="32" fill="rgb(82,32,64)"/><rect x="128" y="32" width="32" height="32" fill="rgb(96,38,74)"/><rect x="160" y="32" width="32" height="32" fill="rgb(73,29,57)"/><rect x="192" y="32" width="32" height="32" fill="rgb(209,82,162)"/><rect x="224" y="32" width="32" height="32" fill="rgb(64,25,50)"/><rect x="256" y="32" width="32" height="32" fill="rgb(225,89,175)"/><rect x="288" y="32" width="32" height="32" fill="rgb(157,62,122)"/><rect x="320" y="32" width="32" height="32" fill="rgb(175,69,136)"/><rect x="352" y="32" width="32" height="32" fill="rgb(61,24,47)"/><rect x="384" y="32" width="32" height="32" fill="rgb(218,86,169)"/><rect x="416" y="32" width="32" height="32" fill="rgb(208,82,161)"/><rect x="448" y="32" width="32" height="32" fill="rgb(103,40,80)"/><rect x="480" y="32" width="32" height="32" fill="rgb(149,59,116)"/><rect x="512" y="32" width="32" height="32" fill="rgb(110,43,85)"/><rect x="544" y="32" width="32" height="32" fill="rgb(94,37,73)"/><rect x="576" y="32" width="32" height="32" fill="rgb(157,62,122)"/><rect x="608" y="32" width="32" height="32" fill="rgb(86,34,67)"/><rect x="640" y="32" width="32" height="32" fill="rgb(118,46,92)"/><rect x="672" y="32" width="32" height="32" fill="rgb(231,91,179)"/><rect x="704" y="32" width="32" height="32" fill="rgb(163,64,126)"/><rect x="736" y="32" width="32" height="32" fill="rgb(104,41,81)"/><rect x="768" y="32" width="32" height="32" fill="rgb(239,94,185)"/><rect x="800" y="32" width="32" height="32" fill="rgb(128,51,100)"/><rect x="832" y="32" width="32" height="32" fill="rgb(181,71,141)"/><rect x="864" y="32" width="32" height="32" fill="rgb(184,73,143)"/><rect x="896" y="32" width="32" height="32" fill="rgb(145,57,112)"/><rect x="928" y="32" width="32" height="32" fill="rgb(164,64,127)"/><rect x="0" y="64" width="32" height="32" fill="rgb(198,78,154)"/><rect x="32" y="64" width="32" height="32" fill="rgb(73,29,57)"/><rect x="64" y="64" width="32" height="32" fill="rgb(169,66,131)"/><rect x="96" y="64" width="32" height="32" fill="rgb(171,67,132)"/><rect x="128" y="64" width="32" height="32" fill="rgb(63,25,49)"/><rect x="160" y="64" width="32" height="32" fill="rgb(230,90,178)"/><rect x="192" y="64" width="32" height="32" fill="rgb(88,35,69)"/><rect x="224" y="64" width="32" height="32" fill="rgb(206,81,160)"/><rect x="256" y="64" width="32" height="32" fill="rgb(117,46,91)"/><rect x="288" y="64" width="32" height="32" fill="rgb(236,93,183)"/><rect x="320" y="64" width="32" height="32" fill="rgb(219,86,170)"/><rect x="352" y="64" width="32" height="32" fill="rgb(205,81,159)"/><rect x="384" y="64" width="32" height="32" fill="rgb(106,42,83)"/><rect x="416" y="64" width="32" height="32" fill="rgb(78,31,61)"/><rect x="448" y="64" width="32" height="32" fill="rgb(141,55,109)"/><rect x="480" y="64" width="32" height="32" fill="rgb(71,28,55)"/><rect x="512" y="64" width="32" height="32" fill="rgb(189,74,147)"/><rect x="544" y="64" width="32" height="32" fill="rgb(167,66,130)"/><rect x="576" y="64" width="32" height="32" fill="rgb(170,67,132)"/><rect x="608" y="64" width="32" height="32" fill="rgb(237,93,184)"/><rect x="640" y="64" width="32" height="32" fill="rgb(101,40,79)"/><rect x="672" y="64" width="32" height="32" fill="rgb(98,39,76)"/><rect x="704" y="64" width="32" height="32" fill="rgb(131,51,101)"/><rect x="736" y="64" width="32" height="32" fill="rgb(111,44,86)"/><rect x="768" y="64" width="32" height="32" fill="rgb(202,79,157)"/><rect x="800" y="64" width="32" height="32" fill="rgb(236,93,183)"/><rect x="832" y="64" width="32" height="32" fill="rgb(138,54,107)"/><rect x="864" y="64" width="32" height="32" fill="rgb(200,78,155)"/><rect x="896" y="64" width="32" height="32" fill="rgb(127,50,98)"/><rect x="928" y="64" width="32" height="32" fill="rgb(98,39,76)"/><rect x="0" y="96" width="32" height="32" fill="rgb(211,83,163)"/><rect x="32" y="96" width="32" height="32" fill="rgb(100,39,78)"/><rect x="64" y="96" width="32" height="32" fill="rgb(232,91,180)"/><rect x="96" y="96" width="32" height="32" fill="rgb(231,91,179)"/><rect x="128" y="96" width="32" height="32" fill="rgb(238,93,184)"/><rect x="160" y="96" width="32" height="32" fill="rgb(177,70,137)"/><rect x="192" y="96" width="32" height="32" fill="rgb(222,87,172)"/><rect x="224" y="96" width="32" height="32" fill="rgb(241,95,187)"/><rect x="256" y="96" width="32" height="32" fill="rgb(94,37,73)"/><rect x="288" y="96" width="32" height="32" fill="rgb(122,48,94)"/><rect x="320" y="96" width="32" height="32" fill="rgb(217,85,168)"/><rect x="352" y="96" width="32" height="32" fill="rgb(123,48,95)"/><rect x="384" y="96" width="32" height="32" fill="rgb(92,36,71)"/><rect x="416" y="96" width="32" height="32" fill="rgb(223,88,173)"/><rect x="448" y="96" width="32" height="32" fill="rgb(74,29,57)"/><rect x="480" y="96" width="32" height="32" fill="rgb(168,66,130)"/><rect x="512" y="96" width="32" height="32" fill="rgb(68,27,53)"/><rect x="544" y="96" width="32" height="32" fill="rgb(127,50,99)"/><rect x="576" y="96" width="32" height="32" fill="rgb(195,77,151)"/><rect x="608" y="96" width="32" height="32" fill="rgb(202,79,157)"/><rect x="640" y="96" width="32" height="32" fill="rgb(104,41,80)"/><rect x="672" y="96" width="32" height="32" fill="rgb(197,77,153)"/><rect x="704" y="96" width="32" height="32" fill="rgb(99,39,77)"/><rect x="736" y="96" width="32" height="32" fill="rgb(108,42,84)"/><rect x="768" y="96" width="32" height="32" fill="rgb(206,81,160)"/><rect x="800" y="96" width="32" height="32" fill="rgb(142,56,110)"/><rect x="832" y="96" width="32" height="32" fill="rgb(119,47,93)"/><rect x="864" y="96" width="32" height="32" fill="rgb(175,69,136)"/><rect x="896" y="96" width="32" height="32" fill="rgb(230,91,179)"/><rect x="928" y="96" width="32" height="32" fill="rgb(64,25,50)"/><rect x="0" y="128" width="32" height="32" fill="rgb(226,89,176)"/><rect x="32" y="128" width="32" height="32" fill="rgb(88,34,68)"/><rect x="64" y="128" width="32" height="32" fill="rgb(100,39,77)"/><rect x="96" y="128" width="32" height="32" fill="rgb(138,54,107)"/><rect x="128" y="128" width="32" height="32" fill="rgb(80,32,62)"/><rect x="160" y="128" width="32" height="32" fill="rgb(224,88,174)"/><rect x="192" y="128" width="32" height="32" fill="rgb(135,53,105)"/><rect x="224" y="128" width="32" height="32" fill="rgb(224,88,173)"/><rect x="256" y="128" width="32" height="32" fill="rgb(77,30,60)"/><rect x="288" y="128" width="32" height="32" fill="rgb(135,53,105)"/><rect x="320" y="128" width="32" height="32" fill="rgb(206,81,160)"/><rect x="352" y="128" width="32" height="32" fill="rgb(61,24,48)"/><rect x="384" y="128" width="32" height="32" fill="rgb(141,55,110)"/><rect x="416" y="128" width="32" height="32" fill="rgb(116,45,90)"/><rect x="448" y="128" width="32" height="32" fill="rgb(217,85,168)"/><rect x="480" y="128" width="32" height="32" fill="rgb(74,29,57)"/><rect x="512" y="128" width="32" height="32" fill="rgb(217,85,168)"/><rect x="544" y="128" width="32" height="32" fill="rgb(127,50,99)"/><rect x="576" y="128" width="32" height="32" fill="rgb(146,57,113)"/><rect x="608" y="128" width="32" height="32" fill="rgb(105,41,81)"/><rect x="640" y="128" width="32" height="32" fill="rgb(220,86,170)"/><rect x="672" y="128" width="32" height="32" fill="rgb(190,75,147)"/><rect x="704" y="128" width="32" height="32" fill="rgb(151,59,117)"/><rect x="736" y="128" width="32" height="32" fill="rgb(122,48,95)"/><rect x="768" y="128" width="32" height="32" fill="rgb(98,39,76)"/><rect x="800" y="128" width="32" height="32" fill="rgb(78,30,60)"/><rect x="832" y="128" width="32" height="32" fill="rgb(91,36,71)"/><rect x="864" y="128" width="32" height="32" fill="rgb(125,49,97)"/><rect x="896" y="128" width="32" height="32" fill="rgb(137,54,107)"/><rect x="928" y="128" width="32" height="32" fill="rgb(107,42,83)"/><rect x="0" y="160" width="32" height="32" fill="rgb(133,52,103)"/><rect x="32" y="160" width="32" height="32" fill="rgb(141,56,110)"/><rect x="64" y="160" width="32" height="32" fill="rgb(98,38,76)"/><rect x="96" y="160" width="32" height="32" fill="rgb(136,54,106)"/><rect x="128" y="160" width="32" height="32" fill="rgb(135,53,105)"/><rect x="160" y="160" width="32" height="32" fill="rgb(127,50,99)"/><rect x="192" y="160" width="32" height="32" fill="rgb(190,75,148)"/><rect x="224" y="160" width="32" height="32" fill="rgb(171,67,133)"/><rect x="256" y="160" width="32" height="32" fill="rgb(141,56,110)"/><rect x="288" y="160" width="32" height="32" fill="rgb(170,67,132)"/><rect x="320" y="160" width="32" height="32" fill="rgb(177,70,138)"/><rect x="352" y="160" width="32" height="32" fill="rgb(83,33,65)"/><rect x="384" y="160" width="32" height="32" fill="rgb(127,50,99)"/><rect x="416" y="160" width="32" height="32" fill="rgb(197,77,153)"/><rect x="448" y="160" width="32" height="32" fill="rgb(115,45,89)"/><rect x="480" y="160" width="32" height="32" fill="rgb(109,43,84)"/><rect x="512" y="160" width="32" height="32" fill="rgb(192,76,149)"/><rect x="544" y="160" width="32" height="32" fill="rgb(198,78,154)"/><rect x="576" y="160" width="32" height="32" fill="rgb(69,27,53)"/><rect x="608" y="160" width="32" height="32" fill="rgb(111,44,86)"/><rect x="640" y="160" width="32" height="32" fill="rgb(217,85,168)"/><rect x="672" y="160" width="32" height="32" fill="rgb(210,83,163)"/><rect x="704" y="160" width="32" height="32" fill="rgb(130,51,101)"/><rect x="736" y="160" width="32" height="32" fill="rgb(156,61,121)"/><rect x="768" y="160" width="32" height="32" fill="rgb(187,73,145)"/><rect x="800" y="160" width="32" height="32" fill="rgb(182,71,141)"/><rect x="832" y="160" width="32" height="32" fill="rgb(79,31,61)"/><rect x="864" y="160" width="32" height="32" fill="rgb(225,88,174)"/><rect x="896" y="160" width="32" height="32" fill="rgb(78,31,61)"/><rect x="928" y="160" width="32" height="32" fill="rgb(104,41,81)"/><rect x="0" y="192" width="32" height="32" fill="rgb(90,35,70)"/><rect x="32" y="192" width="32" height="32" fill="rgb(94,37,73)"/><rect x="64" y="192" width="32" height="32" fill="rgb(117,46,91)"/><rect x="96" y="192" width="32" height="32" fill="rgb(210,83,163)"/><rect x="128" y="192" width="32" height="32" fill="rgb(197,77,153)"/><rect x="160" y="192" width="32" height="32" fill="rgb(201,79,156)"/><rect x="192" y="192" width="32" height="32" fill="rgb(82,32,64)"/><rect x="224" y="192" width="32" height="32" fill="rgb(156,61,121)"/><rect x="256" y="192" width="32" height="32" fill="rgb(83,33,64)"/><rect x="288" y="192" width="32" height="32" fill="rgb(150,59,116)"/><rect x="320" y="192" width="32" height="32" fill="rgb(70,28,54)"/><rect x="352" y="192" width="32" height="32" fill="rgb(241,95,187)"/><rect x="384" y="192" width="32" height="32" fill="rgb(211,83,164)"/><rect x="416" y="192" width="32" height="32" fill="rgb(168,66,131)"/><rect x="448" y="192" width="32" height="32" fill="rgb(176,69,137)"/><rect x="480" y="192" width="32" height="32" fill="rgb(212,83,165)"/><rect x="512" y="192" width="32" height="32" fill="rgb(231,91,179)"/><rect x="544" y="192" width="32" height="32" fill="rgb(201,79,156)"/><rect x="576" y="192" width="32" height="32" fill="rgb(144,57,112)"/><rect x="608" y="192" width="32" height="32" fill="rgb(145,57,113)"/><rect x="640" y="192" width="32" height="32" fill="rgb(134,53,104)"/><rect x="672" y="192" width="32" height="32" fill="rgb(80,32,62)"/><rect x="704" y="192" width="32" height="32" fill="rgb(146,58,114)"/><rect x="736" y="192" width="32" height="32" fill="rgb(90,35,70)"/><rect x="768" y="192" width="32" height="32" fill="rgb(103,41,80)"/><rect x="800" y="192" width="32" height="32" fill="rgb(95,37,74)"/><rect x="832" y="192" width="32" height="32" fill="rgb(158,62,123)"/><rect x="864" y="192" width="32" height="32" fill="rgb(189,74,147)"/><rect x="896" y="192" width="32" height="32" fill="rgb(225,88,175)"/><rect x="928" y="192" width="32" height="32" fill="rgb(180,71,140)"/><rect x="0" y="224" width="32" height="32" fill="rgb(71,28,55)"/><rect x="32" y="224" width="32" height="32" fill="rgb(200,79,156)"/><rect x="64" y="224" width="32" height="32" fill="rgb(185,73,144)"/><rect x="96" y="224" width="32" height="32" fill="rgb(226,89,175)"/><rect x="128" y="224" width="32" height="32" fill="rgb(239,94,185)"/><rect x="160" y="224" width="32" height="32" fill="rgb(159,63,124)"/><rect x="192" y="224" width="32" height="32" fill="rgb(189,74,147)"/><rect x="224" y="224" width="32" height="32" fill="rgb(186,73,144)"/><rect x="256" y="224" width="32" height="32" fill="rgb(168,66,130)"/><rect x="288" y="224" width="32" height="32" fill="rgb(211,83,164)"/><rect x="320" y="224" width="32" height="32" fill="rgb(231,91,179)"/><rect x="352" y="224" width="32" height="32" fill="rgb(162,64,125)"/><rect x="384" y="224" width="32" height="32" fill="rgb(126,49,98)"/><rect x="416" y="224" width="32" height="32" fill="rgb(178,70,138)"/><rect x="448" y="224" width="32" height="32" fill="rgb(153,60,119)"/><rect x="480" y="224" width="32" height="32" fill="rgb(197,77,153)"/><rect x="512" y="224" width="32" height="32" fill="rgb(194,76,151)"/><rect x="544" y="224" width="32" height="32" fill="rgb(189,74,146)"/><rect x="576" y="224" width="32" height="32" fill="rgb(119,47,92)"/><rect x="608" y="224" width="32" height="32" fill="rgb(179,70,139)"/><rect x="640" y="224" width="32" height="32" fill="rgb(149,59,116)"/><rect x="672" y="224" width="32" height="32" fill="rgb(152,60,118)"/><rect x="704" y="224" width="32" height="32" fill="rgb(109,43,85)"/><rect x="736" y="224" width="32" height="32" fill="rgb(154,61,120)"/><rect x="768" y="224" width="32" height="32" fill="rgb(240,94,186)"/><rect x="800" y="224" width="32" height="32" fill="rgb(162,64,126)"/><rect x="832" y="224" width="32" height="32" fill="rgb(156,61,121)"/><rect x="864" y="224" width="32" height="32" fill="rgb(161,63,125)"/><rect x="896" y="224" width="32" height="32" fill="rgb(119,47,93)"/><rect x="928" y="224" width="32" height="32" fill="rgb(129,51,100)"/><rect x="0" y="256" width="32" height="32" fill="rgb(134,53,104)"/><rect x="32" y="256" width="32" height="32" fill="rgb(234,92,182)"/><rect x="64" y="256" width="32" height="32" fill="rgb(136,53,105)"/><rect x="96" y="256" width="32" height="32" fill="rgb(234,92,182)"/><rect x="128" y="256" width="32" height="32" fill="rgb(66,26,51)"/><rect x="160" y="256" width="32" height="32" fill="rgb(204,80,158)"/><rect x="192" y="256" width="32" height="32" fill="rgb(139,55,108)"/><rect x="224" y="256" width="32" height="32" fill="rgb(88,35,69)"/><rect x="256" y="256" width="32" height="32" fill="rgb(221,87,171)"/><rect x="288" y="256" width="32" height="32" fill="rgb(147,58,114)"/><rect x="320" y="256" width="32" height="32" fill="rgb(206,81,160)"/><rect x="352" y="256" width="32" height="32" fill="rgb(222,87,172)"/><rect x="384" y="256" width="32" height="32" fill="rgb(221,87,171)"/><rect x="416" y="256" width="32" height="32" fill="rgb(100,39,77)"/><rect x="448" y="256" width="32" height="32" fill="rgb(239,94,185)"/><rect x="480" y="256" width="32" height="32" fill="rgb(147,58,114)"/><rect x="512" y="256" width="32" height="32" fill="rgb(130,51,101)"/><rect x="544" y="256" width="32" height="32" fill="rgb(75,30,58)"/><rect x="576" y="256" width="32" height="32" fill="rgb(230,91,179)"/><rect x="608" y="256" width="32" height="32" fill="rgb(116,45,90)"/><rect x="640" y="256" width="32" height="32" fill="rgb(194,76,151)"/><rect x="672" y="256" width="32" height="32" fill="rgb(101,40,78)"/><rect x="704" y="256" width="32" height="32" fill="rgb(97,38,76)"/><rect x="736" y="256" width="32" height="32" fill="rgb(172,68,134)"/><rect x="768" y="256" width="32" height="32" fill="rgb(118,46,92)"/><rect x="800" y="256" width="32" height="32" fill="rgb(73,29,57)"/><rect x="832" y="256" width="32" height="32" fill="rgb(86,34,66)"/><rect x="864" y="256" width="32" height="32" fill="rgb(145,57,112)"/><rect x="896" y="256" width="32" height="32" fill="rgb(119,47,93)"/><rect x="928" y="256" width="32" height="32" fill="rgb(85,34,66)"/><rect x="0" y="288" width="32" height="32" fill="rgb(92,36,72)"/><rect x="32" y="288" width="32" height="32" fill="rgb(61,24,47)"/><rect x="64" y="288" width="32" height="32" fill="rgb(172,68,134)"/><rect x="96" y="288" width="32" height="32" fill="rgb(120,47,93)"/><rect x="128" y="288" width="32" height="32" fill="rgb(164,65,127)"/><rect x="160" y="288" width="32" height="32" fill="rgb(234,92,182)"/><rect x="192" y="288" width="32" height="32" fill="rgb(124,49,96)"/><rect x="224" y="288" width="32" height="32" fill="rgb(166,65,129)"/><rect x="256" y="288" width="32" height="32" fill="rgb(102,40,79)"/><rect x="288" y="288" width="32" height="32" fill="rgb(158,62,122)"/><rect x="320" y="288" width="32" height="32" fill="rgb(118,47,92)"/><rect x="352" y="288" width="32" height="32" fill="rgb(99,39,77)"/><rect x="384" y="288" width="32" height="32" fill="rgb(216,85,167)"/><rect x="416" y="288" width="32" height="32" fill="rgb(230,90,178)"/><rect x="448" y="288" width="32" height="32" fill="rgb(126,50,98)"/><rect x="480" y="288" width="32" height="32" fill="rgb(207,81,161)"/><rect x="512" y="288" width="32" height="32" fill="rgb(198,78,153)"/><rect x="544" y="288" width="32" height="32" fill="rgb(180,71,140)"/><rect x="576" y="288" width="32" height="32" fill="rgb(80,32,62)"/><rect x="608" y="288" width="32" height="32" fill="rgb(87,34,68)"/><rect x="640" y="288" width="32" height="32" fill="rgb(170,67,132)"/><rect x="672" y="288" width="32" height="32" fill="rgb(127,50,99)"/><rect x="704" y="288" width="32" height="32" fill="rgb(231,91,179)"/><rect x="736" y="288" width="32" height="32" fill="rgb(167,66,130)"/><rect x="768" y="288" width="32" height="32" fill="rgb(202,79,157)"/><rect x="800" y="288" width="32" height="32" fill="rgb(92,36,72)"/><rect x="832" y="288" width="32" height="32" fill="rgb(183,72,142)"/><rect x="864" y="288" width="32" height="32" fill="rgb(219,86,170)"/><rect x="896" y="288" width="32" height="32" fill="rgb(192,76,149)"/><rect x="928" y="288" width="32" height="32" fill="rgb(193,76,150)"/><rect x="0" y="320" width="32" height="32" fill="rgb(160,63,124)"/><rect x="32" y="320" width="32" height="32" fill="rgb(225,88,174)"/><rect x="64" y="320" width="32" height="32" fill="rgb(184,72,143)"/><rect x="96" y="320" width="32" height="32" fill="rgb(223,88,173)"/><rect x="128" y="320" width="32" height="32" fill="rgb(184,72,143)"/><rect x="160" y="320" width="32" height="32" fill="rgb(223,88,173)"/><rect x="192" y="320" width="32" height="32" fill="rgb(133,52,103)"/><rect x="224" y="320" width="32" height="32" fill="rgb(78,31,60)"/><rect x="256" y="320" width="32" height="32" fill="rgb(190,75,147)"/><rect x="288" y="320" width="32" height="32" fill="rgb(221,87,171)"/><rect x="320" y="320" width="32" height="32" fill="rgb(129,51,100)"/><rect x="352" y="320" width="32" height="32" fill="rgb(61,24,48)"/><rect x="384" y="320" width="32" height="32" fill="rgb(238,93,184)"/><rect x="416" y="320" width="32" height="32" fill="rgb(68,27,53)"/><rect x="448" y="320" width="32" height="32" fill="rgb(209,82,162)"/><rect x="480" y="320" width="32" height="32" fill="rgb(71,28,55)"/><rect x="512" y="320" width="32" height="32" fill="rgb(104,41,81)"/><rect x="544" y="320" width="32" height="32" fill="rgb(184,72,143)"/><rect x="576" y="320" width="32" height="32" fill="rgb(239,94,186)"/><rect x="608" y="320" width="32" height="32" fill="rgb(95,37,74)"/><rect x="640" y="320" width="32" height="32" fill="rgb(140,55,109)"/><rect x="672" y="320" width="32" height="32" fill="rgb(188,74,146)"/><rect x="704" y="320" width="32" height="32" fill="rgb(133,52,103)"/><rect x="736" y="320" width="32" height="32" fill="rgb(94,37,73)"/><rect x="768" y="320" width="32" height="32" fill="rgb(86,34,66)"/><rect x="800" y="320" width="32" height="32" fill="rgb(185,73,143)"/><rect x="832" y="320" width="32" height="32" fill="rgb(200,79,155)"/><rect x="864" y="320" width="32" height="32" fill="rgb(73,29,57)"/><rect x="896" y="320" width="32" height="32" fill="rgb(91,36,71)"/><rect x="928" y="320" width="32" height="32" fill="rgb(90,36,70)"/><rect x="0" y="352" width="32" height="32" fill="rgb(121,47,94)"/><rect x="32" y="352" width="32" height="32" fill="rgb(172,68,133)"/><rect x="64" y="352" width="32" height="32" fill="rgb(198,78,154)"/><rect x="96" y="352" width="32" height="32" fill="rgb(98,38,76)"/><rect x="128" y="352" width="32" height="32" fill="rgb(85,33,66)"/><rect x="160" y="352" width="32" height="32" fill="rgb(77,30,60)"/><rect x="192" y="352" width="32" height="32" fill="rgb(94,37,73)"/><rect x="224" y="352" width="32" height="32" fill="rgb(224,88,174)"/><rect x="256" y="352" width="32" height="32" fill="rgb(127,50,99)"/><rect x="288" y="352" width="32" height="32" fill="rgb(216,85,168)"/><rect x="320" y="352" width="32" height="32" fill="rgb(107,42,83)"/><rect x="352" y="352" width="32" height="32" fill="rgb(112,44,87)"/><rect x="384" y="352" width="32" height="32" fill="rgb(235,92,182)"/><rect x="416" y="352" width="32" height="32" fill="rgb(173,68,134)"/><rect x="448" y="352" width="32" height="32" fill="rgb(79,31,61)"/><rect x="480" y="352" width="32" height="32" fill="rgb(157,62,121)"/><rect x="512" y="352" width="32" height="32" fill="rgb(134,53,104)"/><rect x="544" y="352" width="32" height="32" fill="rgb(217,85,169)"/><rect x="576" y="352" width="32" height="32" fill="rgb(238,94,185)"/><rect x="608" y="352" width="32" height="32" fill="rgb(107,42,83)"/><rect x="640" y="352" width="32" height="32" fill="rgb(178,70,138)"/><rect x="672" y="352" width="32" height="32" fill="rgb(211,83,164)"/><rect x="704" y="352" width="32" height="32" fill="rgb(152,60,118)"/><rect x="736" y="352" width="32" height="32" fill="rgb(102,40,79)"/><rect x="768" y="352" width="32" height="32" fill="rgb(121,48,94)"/><rect x="800" y="352" width="32" height="32" fill="rgb(89,35,69)"/><rect x="832" y="352" width="32" height="32" fill="rgb(125,49,97)"/><rect x="864" y="352" width="32" height="32" fill="rgb(178,70,138)"/><rect x="896" y="352" width="32" height="32" fill="rgb(66,26,51)"/><rect x="928" y="352" width="32" height="32" fill="rgb(189,74,147)"/><rect x="0" y="384" width="32" height="32" fill="rgb(117,46,91)"/><rect x="32" y="384" width="32" height="32" fill="rgb(201,79,156)"/><rect x="64" y="384" width="32" height="32" fill="rgb(158,62,123)"/><rect x="96" y="384" width="32" height="32" fill="rgb(79,31,62)"/><rect x="128" y="384" width="32" height="32" fill="rgb(145,57,113)"/><rect x="160" y="384" width="32" height="32" fill="rgb(232,91,180)"/><rect x="192" y="384" width="32" height="32" fill="rgb(143,56,111)"/><rect x="224" y="384" width="32" height="32" fill="rgb(128,50,99)"/><rect x="256" y="384" width="32" height="32" fill="rgb(152,60,118)"/><rect x="288" y="384" width="32" height="32" fill="rgb(179,70,139)"/><rect x="320" y="384" width="32" height="32" fill="rgb(180,71,139)"/><rect x="352" y="384" width="32" height="32" fill="rgb(147,58,114)"/><rect x="384" y="384" width="32" height="32" fill="rgb(200,78,155)"/><rect x="416" y="384" width="32" height="32" fill="rgb(202,80,157)"/><rect x="448" y="384" width="32" height="32" fill="rgb(200,78,155)"/><rect x="480" y="384" width="32" height="32" fill="rgb(236,93,183)"/><rect x="512" y="384" width="32" height="32" fill="rgb(217,85,169)"/><rect x="544" y="384" width="32" height="32" fill="rgb(62,25,48)"/><rect x="576" y="384" width="32" height="32" fill="rgb(70,28,55)"/><rect x="608" y="384" width="32" height="32" fill="rgb(98,39,76)"/><rect x="640" y="384" width="32" height="32" fill="rgb(61,24,47)"/><rect x="672" y="384" width="32" height="32" fill="rgb(171,67,133)"/><rect x="704" y="384" width="32" height="32" fill="rgb(179,70,139)"/><rect x="736" y="384" width="32" height="32" fill="rgb(89,35,69)"/><rect x="768" y="384" width="32" height="32" fill="rgb(138,54,107)"/><rect x="800" y="384" width="32" height="32" fill="rgb(150,59,116)"/><rect x="832" y="384" width="32" height="32" fill="rgb(209,82,162)"/><rect x="864" y="384" width="32" height="32" fill="rgb(185,73,143)"/><rect x="896" y="384" width="32" height="32" fill="rgb(212,83,165)"/><rect x="928" y="384" width="32" height="32" fill="rgb(70,27,54)"/><rect x="0" y="416" width="32" height="32" fill="rgb(108,43,84)"/><rect x="32" y="416" width="32" height="32" fill="rgb(139,55,108)"/><rect x="64" y="416" width="32" height="32" fill="rgb(69,27,53)"/><rect x="96" y="416" width="32" height="32" fill="rgb(70,28,54)"/><rect x="128" y="416" width="32" height="32" fill="rgb(101,40,79)"/><rect x="160" y="416" width="32" height="32" fill="rgb(200,79,155)"/><rect x="192" y="416" width="32" height="32" fill="rgb(118,46,92)"/><rect x="224" y="416" width="32" height="32" fill="rgb(227,89,176)"/><rect x="256" y="416" width="32" height="32" fill="rgb(91,36,70)"/><rect x="288" y="416" width="32" height="32" fill="rgb(93,37,73)"/><rect x="320" y="416" width="32" height="32" fill="rgb(145,57,113)"/><rect x="352" y="416" width="32" height="32" fill="rgb(188,74,146)"/><rect x="384" y="416" width="32" height="32" fill="rgb(129,51,100)"/><rect x="416" y="416" width="32" height="32" fill="rgb(204,80,158)"/><rect x="448" y="416" width="32" height="32" fill="rgb(136,53,106)"/><rect x="480" y="416" width="32" height="32" fill="rgb(73,29,56)"/><rect x="512" y="416" width="32" height="32" fill="rgb(108,42,84)"/><rect x="544" y="416" width="32" height="32" fill="rgb(222,87,172)"/><rect x="576" y="416" width="32" height="32" fill="rgb(65,26,51)"/><rect x="608" y="416" width="32" height="32" fill="rgb(72,28,56)"/><rect x="640" y="416" width="32" height="32" fill="rgb(88,34,68)"/><rect x="672" y="416" width="32" height="32" fill="rgb(175,69,136)"/><rect x="704" y="416" width="32" height="32" fill="rgb(224,88,174)"/><rect x="736" y="416" width="32" height="32" fill="rgb(216,85,168)"/><rect x="768" y="416" width="32" height="32" fill="rgb(107,42,83)"/><rect x="800" y="416" width="32" height="32" fill="rgb(235,93,183)"/><rect x="832" y="416" width="32" height="32" fill="rgb(127,50,99)"/><rect x="864" y="416" width="32" height="32" fill="rgb(157,62,122)"/><rect x="896" y="416" width="32" height="32" fill="rgb(114,45,88)"/><rect x="928" y="416" width="32" height="32" fill="rgb(121,48,94)"/><rect x="0" y="448" width="32" height="32" fill="rgb(219,86,170)"/><rect x="32" y="448" width="32" height="32" fill="rgb(207,81,161)"/><rect x="64" y="448" width="32" height="32" fill="rgb(166,65,129)"/><rect x="96" y="448" width="32" height="32" fill="rgb(102,40,79)"/><rect x="128" y="448" width="32" height="32" fill="rgb(237,93,184)"/><rect x="160" y="448" width="32" height="32" fill="rgb(185,73,143)"/><rect x="192" y="448" width="32" height="32" fill="rgb(78,31,61)"/><rect x="224" y="448" width="32" height="32" fill="rgb(89,35,69)"/><rect x="256" y="448" width="32" height="32" fill="rgb(84,33,65)"/><rect x="288" y="448" width="32" height="32" fill="rgb(202,80,157)"/><rect x="320" y="448" width="32" height="32" fill="rgb(185,73,144)"/><rect x="352" y="448" width="32" height="32" fill="rgb(176,69,137)"/><rect x="384" y="448" width="32" height="32" fill="rgb(165,65,128)"/><rect x="416" y="448" width="32" height="32" fill="rgb(239,94,185)"/><rect x="448" y="448" width="32" height="32" fill="rgb(218,86,169)"/><rect x="480" y="448" width="32" height="32" fill="rgb(72,28,56)"/><rect x="512" y="448" width="32" height="32" fill="rgb(105,41,81)"/><rect x="544" y="448" width="32" height="32" fill="rgb(197,77,153)"/><rect x="576" y="448" width="32" height="32" fill="rgb(110,43,85)"/><rect x="608" y="448" width="32" height="32" fill="rgb(192,76,149)"/><rect x="640" y="448" width="32" height="32" fill="rgb(223,88,173)"/><rect x="672" y="448" width="32" height="32" fill="rgb(231,91,179)"/><rect x="704" y="448" width="32" height="32" fill="rgb(125,49,97)"/><rect x="736" y="448" width="32" height="32" fill="rgb(89,35,69)"/><rect x="768" y="448" width="32" height="32" fill="rgb(106,42,82)"/><rect x="800" y="448" width="32" height="32" fill="rgb(128,50,99)"/><rect x="832" y="448" width="32" height="32" fill="rgb(150,59,117)"/><rect x="864" y="448" width="32" height="32" fill="rgb(75,30,58)"/><rect x="896" y="448" width="32" height="32" fill="rgb(197,77,153)"/><rect x="928" y="448" width="32" height="32" fill="rgb(124,49,96)"/><rect x="0" y="480" width="32" height="32" fill="rgb(131,52,102)"/><rect x="32" y="480" width="32" height="32" fill="rgb(80,31,62)"/><rect x="64" y="480" width="32" height="32" fill="rgb(98,39,76)"/><rect x="96" y="480" width="32" height="32" fill="rgb(161,63,125)"/><rect x="128" y="480" width="32" height="32" fill="rgb(220,87,171)"/><rect x="160" y="480" width="32" height="32" fill="rgb(153,60,119)"/><rect x="192" y="480" width="32" height="32" fill="rgb(113,44,88)"/><rect x="224" y="480" width="32" height="32" fill="rgb(90,36,70)"/><rect x="256" y="480" width="32" height="32" fill="rgb(112,44,87)"/><rect x="288" y="480" width="32" height="32" fill="rgb(215,84,167)"/><rect x="320" y="480" width="32" height="32" fill="rgb(230,91,179)"/><rect x="352" y="480" width="32" height="32" fill="rgb(80,32,62)"/><rect x="384" y="480" width="32" height="32" fill="rgb(136,54,106)"/><rect x="416" y="480" width="32" height="32" fill="rgb(78,31,61)"/><rect x="448" y="480" width="32" height="32" fill="rgb(209,82,162)"/><rect x="480" y="480" width="32" height="32" fill="rgb(120,47,93)"/><rect x="512" y="480" width="32" height="32" fill="rgb(173,68,134)"/><rect x="544" y="480" width="32" height="32" fill="rgb(234,92,182)"/><rect x="576" y="480" width="32" height="32" fill="rgb(132,52,103)"/><rect x="608" y="480" width="32" height="32" fill="rgb(194,76,151)"/><rect x="640" y="480" width="32" height="32" fill="rgb(75,29,58)"/><rect x="672" y="480" width="32" height="32" fill="rgb(85,33,66)"/><rect x="704" y="480" width="32" height="32" fill="rgb(117,46,91)"/><rect x="736" y="480" width="32" height="32" fill="rgb(100,39,78)"/><rect x="768" y="480" width="32" height="32" fill="rgb(138,54,107)"/><rect x="800" y="480" width="32" height="32" fill="rgb(74,29,58)"/><rect x="832" y="480" width="32" height="32" fill="rgb(174,68,135)"/><rect x="864" y="480" width="32" height="32" fill="rgb(112,44,87)"/><rect x="896" y="480" width="32" height="32" fill="rgb(138,54,107)"/><rect x="928" y="480" width="32" height="32" fill="rgb(231,91,180)"/><rect x="0" y="512" width="32" height="32" fill="rgb(112,44,87)"/><rect x="32" y="512" width="32" height="32" fill="rgb(101,40,78)"/><rect x="64" y="512" width="32" height="32" fill="rgb(184,72,143)"/><rect x="96" y="512" width="32" height="32" fill="rgb(107,42,83)"/><rect x="128" y="512" width="32" height="32" fill="rgb(77,30,60)"/><rect x="160" y="512" width="32" height="32" fill="rgb(92,36,71)"/><rect x="192" y="512" width="32" height="32" fill="rgb(95,37,74)"/><rect x="224" y="512" width="32" height="32" fill="rgb(135,53,104)"/><rect x="256" y="512" width="32" height="32" fill="rgb(181,71,140)"/><rect x="288" y="512" width="32" height="32" fill="rgb(165,65,128)"/><rect x="320" y="512" width="32" height="32" fill="rgb(235,93,183)"/><rect x="352" y="512" width="32" height="32" fill="rgb(124,49,96)"/><rect x="384" y="512" width="32" height="32" fill="rgb(151,59,117)"/><rect x="416" y="512" width="32" height="32" fill="rgb(69,27,54)"/><rect x="448" y="512" width="32" height="32" fill="rgb(68,27,53)"/><rect x="480" y="512" width="32" height="32" fill="rgb(185,73,144)"/><rect x="512" y="512" width="32" height="32" fill="rgb(228,90,177)"/><rect x="544" y="512" width="32" height="32" fill="rgb(189,74,147)"/><rect x="576" y="512" width="32" height="32" fill="rgb(134,53,104)"/><rect x="608" y="512" width="32" height="32" fill="rgb(83,33,65)"/><rect x="640" y="512" width="32" height="32" fill="rgb(90,36,70)"/><rect x="672" y="512" width="32" height="32" fill="rgb(76,30,59)"/><rect x="704" y="512" width="32" height="32" fill="rgb(197,77,153)"/><rect x="736" y="512" width="32" height="32" fill="rgb(160,63,124)"/><rect x="768" y="512" width="32" height="32" fill="rgb(188,74,146)"/><rect x="800" y="512" width="32" height="32" fill="rgb(153,60,119)"/><rect x="832" y="512" width="32" height="32" fill="rgb(217,85,168)"/><rect x="864" y="512" width="32" height="32" fill="rgb(94,37,73)"/><rect x="896" y="512" width="32" height="32" fill="rgb(228,90,177)"/><rect x="928" y="512" width="32" height="32" fill="rgb(217,85,169)"/><rect x="0" y="544" width="32" height="32" fill="rgb(190,75,148)"/><rect x="32" y="544" width="32" height="32" fill="rgb(68,27,52)"/><rect x="64" y="544" width="32" height="32" fill="rgb(130,51,101)"/><rect x="96" y="544" width="32" height="32" fill="rgb(127,50,98)"/><rect x="128" y="544" width="32" height="32" fill="rgb(160,63,124)"/><rect x="160" y="544" width="32" height="32" fill="rgb(176,69,136)"/><rect x="192" y="544" width="32" height="32" fill="rgb(77,30,60)"/><rect x="224" y="544" width="32" height="32" fill="rgb(227,89,176)"/><rect x="256" y="544" width="32" height="32" fill="rgb(208,82,161)"/><rect x="288" y="544" width="32" height="32" fill="rgb(183,72,142)"/><rect x="320" y="544" width="32" height="32" fill="rgb(72,28,56)"/><rect x="352" y="544" width="32" height="32" fill="rgb(115,45,89)"/><rect x="384" y="544" width="32" height="32" fill="rgb(210,83,163)"/><rect x="416" y="544" width="32" height="32" fill="rgb(220,86,171)"/><rect x="448" y="544" width="32" height="32" fill="rgb(63,25,49)"/><rect x="480" y="544" width="32" height="32" fill="rgb(63,25,49)"/><rect x="512" y="544" width="32" height="32" fill="rgb(194,76,151)"/><rect x="544" y="544" width="32" height="32" fill="rgb(148,58,115)"/><rect x="576" y="544" width="32" height="32" fill="rgb(191,75,148)"/><rect x="608" y="544" width="32" height="32" fill="rgb(99,39,77)"/><rect x="640" y="544" width="32" height="32" fill="rgb(144,57,112)"/><rect x="672" y="544" width="32" height="32" fill="rgb(174,68,135)"/><rect x="704" y="544" width="32" height="32" fill="rgb(173,68,134)"/><rect x="736" y="544" width="32" height="32" fill="rgb(232,91,180)"/><rect x="768" y="544" width="32" height="32" fill="rgb(210,83,163)"/><rect x="800" y="544" width="32" height="32" fill="rgb(132,52,102)"/><rect x="832" y="544" width="32" height="32" fill="rgb(163,64,127)"/><rect x="864" y="544" width="32" height="32" fill="rgb(141,55,109)"/><rect x="896" y="544" width="32" height="32" fill="rgb(103,41,80)"/><rect x="928" y="544" width="32" height="32" fill="rgb(225,88,175)"/><rect x="0" y="576" width="32" height="32" fill="rgb(113,45,88)"/><rect x="32" y="576" width="32" height="32" fill="rgb(74,29,57)"/><rect x="64" y="576" width="32" height="32" fill="rgb(159,63,123)"/><rect x="96" y="576" width="32" height="32" fill="rgb(63,25,49)"/><rect x="128" y="576" width="32" height="32" fill="rgb(222,87,173)"/><rect x="160" y="576" width="32" height="32" fill="rgb(79,31,61)"/><rect x="192" y="576" width="32" height="32" fill="rgb(241,95,187)"/><rect x="224" y="576" width="32" height="32" fill="rgb(181,71,141)"/><rect x="256" y="576" width="32" height="32" fill="rgb(108,42,84)"/><rect x="288" y="576" width="32" height="32" fill="rgb(239,94,186)"/><rect x="320" y="576" width="32" height="32" fill="rgb(172,68,133)"/><rect x="352" y="576" width="32" height="32" fill="rgb(178,70,139)"/><rect x="384" y="576" width="32" height="32" fill="rgb(226,89,176)"/><rect x="416" y="576" width="32" height="32" fill="rgb(89,35,69)"/><rect x="448" y="576" width="32" height="32" fill="rgb(206,81,160)"/><rect x="480" y="576" width="32" height="32" fill="rgb(212,84,165)"/><rect x="512" y="576" width="32" height="32" fill="rgb(205,81,159)"/><rect x="544" y="576" width="32" height="32" fill="rgb(88,34,68)"/><rect x="576" y="576" width="32" height="32" fill="rgb(191,75,148)"/><rect x="608" y="576" width="32" height="32" fill="rgb(69,27,53)"/><rect x="640" y="576" width="32" height="32" fill="rgb(162,64,126)"/><rect x="672" y="576" width="32" height="32" fill="rgb(216,85,167)"/><rect x="704" y="576" width="32" height="32" fill="rgb(184,72,142)"/><rect x="736" y="576" width="32" height="32" fill="rgb(95,37,73)"/><rect x="768" y="576" width="32" height="32" fill="rgb(226,89,175)"/><rect x="800" y="576" width="32" height="32" fill="rgb(187,74,145)"/><rect x="832" y="576" width="32" height="32" fill="rgb(201,79,156)"/><rect x="864" y="576" width="32" height="32" fill="rgb(129,51,100)"/><rect x="896" y="576" width="32" height="32" fill="rgb(178,70,138)"/><rect x="928" y="576" width="32" height="32" fill="rgb(201,79,156)"/><rect x="0" y="608" width="32" height="32" fill="rgb(105,41,81)"/><rect x="32" y="608" width="32" height="32" fill="rgb(165,65,128)"/><rect x="64" y="608" width="32" height="32" fill="rgb(140,55,108)"/><rect x="96" y="608" width="32" height="32" fill="rgb(73,29,56)"/><rect x="128" y="608" width="32" height="32" fill="rgb(96,38,74)"/><rect x="160" y="608" width="32" height="32" fill="rgb(137,54,106)"/><rect x="192" y="608" width="32" height="32" fill="rgb(140,55,109)"/><rect x="224" y="608" width="32" height="32" fill="rgb(65,26,50)"/><rect x="256" y="608" width="32" height="32" fill="rgb(149,59,116)"/><rect x="288" y="608" width="32" height="32" fill="rgb(86,34,67)"/><rect x="320" y="608" width="32" height="32" fill="rgb(74,29,58)"/><rect x="352" y="608" width="32" height="32" fill="rgb(62,24,48)"/><rect x="384" y="608" width="32" height="32" fill="rgb(167,66,130)"/><rect x="416" y="608" width="32" height="32" fill="rgb(93,37,72)"/><rect x="448" y="608" width="32" height="32" fill="rgb(167,66,130)"/><rect x="480" y="608" width="32" height="32" fill="rgb(101,40,78)"/><rect x="512" y="608" width="32" height="32" fill="rgb(132,52,102)"/><rect x="544" y="608" width="32" height="32" fill="rgb(131,52,102)"/><rect x="576" y="608" width="32" height="32" fill="rgb(104,41,80)"/><rect x="608" y="608" width="32" height="32" fill="rgb(86,34,67)"/><rect x="640" y="608" width="32" height="32" fill="rgb(82,32,64)"/><rect x="672" y="608" width="32" height="32" fill="rgb(139,55,108)"/><rect x="704" y="608" width="32" height="32" fill="rgb(169,66,131)"/><rect x="736" y="608" width="32" height="32" fill="rgb(199,78,155)"/><rect x="768" y="608" width="32" height="32" fill="rgb(171,67,132)"/><rect x="800" y="608" width="32" height="32" fill="rgb(115,45,89)"/><rect x="832" y="608" width="32" height="32" fill="rgb(82,32,63)"/><rect x="864" y="608" width="32" height="32" fill="rgb(160,63,124)"/><rect x="896" y="608" width="32" height="32" fill="rgb(165,65,128)"/><rect x="928" y="608" width="32" height="32" fill="rgb(63,25,49)"/><rect x="0" y="640" width="32" height="32" fill="rgb(142,56,110)"/><rect x="32" y="640" width="32" height="32" fill="rgb(80,31,62)"/><rect x="64" y="640" width="32" height="32" fill="rgb(130,51,101)"/><rect x="96" y="640" width="32" height="32" fill="rgb(188,74,146)"/><rect x="128" y="640" width="32" height="32" fill="rgb(190,75,148)"/><rect x="160" y="640" width="32" height="32" fill="rgb(233,92,181)"/><rect x="192" y="640" width="32" height="32" fill="rgb(115,45,89)"/><rect x="224" y="640" width="32" height="32" fill="rgb(75,29,58)"/><rect x="256" y="640" width="32" height="32" fill="rgb(79,31,61)"/><rect x="288" y="640" width="32" height="32" fill="rgb(185,73,144)"/><rect x="320" y="640" width="32" height="32" fill="rgb(82,32,64)"/><rect x="352" y="640" width="32" height="32" fill="rgb(155,61,120)"/><rect x="384" y="640" width="32" height="32" fill="rgb(235,92,183)"/><rect x="416" y="640" width="32" height="32" fill="rgb(94,37,73)"/><rect x="448" y="640" width="32" height="32" fill="rgb(217,85,168)"/><rect x="480" y="640" width="32" height="32" fill="rgb(223,88,173)"/><rect x="512" y="640" width="32" height="32" fill="rgb(189,74,147)"/><rect x="544" y="640" width="32" height="32" fill="rgb(186,73,144)"/><rect x="576" y="640" width="32" height="32" fill="rgb(86,34,67)"/><rect x="608" y="640" width="32" height="32" fill="rgb(134,53,104)"/><rect x="640" y="640" width="32" height="32" fill="rgb(143,56,111)"/><rect x="672" y="640" width="32" height="32" fill="rgb(131,51,101)"/><rect x="704" y="640" width="32" height="32" fill="rgb(212,83,165)"/><rect x="736" y="640" width="32" height="32" fill="rgb(220,86,171)"/><rect x="768" y="640" width="32" height="32" fill="rgb(115,45,89)"/><rect x="800" y="640" width="32" height="32" fill="rgb(169,67,131)"/><rect x="832" y="640" width="32" height="32" fill="rgb(130,51,101)"/><rect x="864" y="640" width="32" height="32" fill="rgb(186,73,144)"/><rect x="896" y="640" width="32" height="32" fill="rgb(145,57,112)"/><rect x="928" y="640" width="32" height="32" fill="rgb(229,90,178)"/><rect x="0" y="672" width="32" height="32" fill="rgb(141,55,110)"/><rect x="32" y="672" width="32" height="32" fill="rgb(187,74,145)"/><rect x="64" y="672" width="32" height="32" fill="rgb(167,66,129)"/><rect x="96" y="672" width="32" height="32" fill="rgb(221,87,172)"/><rect x="128" y="672" width="32" height="32" fill="rgb(155,61,120)"/><rect x="160" y="672" width="32" height="32" fill="rgb(139,55,108)"/><rect x="192" y="672" width="32" height="32" fill="rgb(170,67,132)"/><rect x="224" y="672" width="32" height="32" fill="rgb(130,51,101)"/><rect x="256" y="672" width="32" height="32" fill="rgb(195,77,152)"/><rect x="288" y="672" width="32" height="32" fill="rgb(201,79,156)"/><rect x="320" y="672" width="32" height="32" fill="rgb(106,41,82)"/><rect x="352" y="672" width="32" height="32" fill="rgb(78,31,61)"/><rect x="384" y="672" width="32" height="32" fill="rgb(180,71,139)"/><rect x="416" y="672" width="32" height="32" fill="rgb(229,90,178)"/><rect x="448" y="672" width="32" height="32" fill="rgb(107,42,83)"/><rect x="480" y="672" width="32" height="32" fill="rgb(82,32,64)"/><rect x="512" y="672" width="32" height="32" fill="rgb(221,87,171)"/><rect x="544" y="672" width="32" height="32" fill="rgb(83,33,64)"/><rect x="576" y="672" width="32" height="32" fill="rgb(65,26,51)"/><rect x="608" y="672" width="32" height="32" fill="rgb(180,71,140)"/><rect x="640" y="672" width="32" height="32" fill="rgb(156,61,121)"/><rect x="672" y="672" width="32" height="32" fill="rgb(134,53,104)"/><rect x="704" y="672" width="32" height="32" fill="rgb(64,25,50)"/><rect x="736" y="672" width="32" height="32" fill="rgb(207,81,160)"/><rect x="768" y="672" width="32" height="32" fill="rgb(113,45,88)"/><rect x="800" y="672" width="32" height="32" fill="rgb(200,79,155)"/><rect x="832" y="672" width="32" height="32" fill="rgb(148,58,115)"/><rect x="864" y="672" width="32" height="32" fill="rgb(136,54,106)"/><rect x="896" y="672" width="32" height="32" fill="rgb(122,48,95)"/><rect x="928" y="672" width="32" height="32" fill="rgb(76,30,59)"/><rect x="0" y="704" width="32" height="32" fill="rgb(147,58,114)"/><rect x="32" y="704" width="32" height="32" fill="rgb(78,31,61)"/><rect x="64" y="704" width="32" height="32" fill="rgb(164,65,128)"/><rect x="96" y="704" width="32" height="32" fill="rgb(124,49,96)"/><rect x="128" y="704" width="32" height="32" fill="rgb(145,57,113)"/><rect x="160" y="704" width="32" height="32" fill="rgb(227,89,176)"/><rect x="192" y="704" width="32" height="32" fill="rgb(152,60,118)"/><rect x="224" y="704" width="32" height="32" fill="rgb(162,63,125)"/><rect x="256" y="704" width="32" height="32" fill="rgb(85,33,66)"/><rect x="288" y="704" width="32" height="32" fill="rgb(183,72,142)"/><rect x="320" y="704" width="32" height="32" fill="rgb(168,66,130)"/><rect x="352" y="704" width="32" height="32" fill="rgb(64,25,50)"/><rect x="384" y="704" width="32" height="32" fill="rgb(218,86,169)"/><rect x="416" y="704" width="32" height="32" fill="rgb(110,43,86)"/><rect x="448" y="704" width="32" height="32" fill="rgb(224,88,174)"/><rect x="480" y="704" width="32" height="32" fill="rgb(180,71,140)"/><rect x="512" y="704" width="32" height="32" fill="rgb(168,66,130)"/><rect x="544" y="704" width="32" height="32" fill="rgb(87,34,68)"/><rect x="576" y="704" width="32" height="32" fill="rgb(160,63,125)"/><rect x="608" y="704" width="32" height="32" fill="rgb(66,26,51)"/><rect x="640" y="704" width="32" height="32" fill="rgb(96,38,75)"/><rect x="672" y="704" width="32" height="32" fill="rgb(197,77,153)"/><rect x="704" y="704" width="32" height="32" fill="rgb(97,38,75)"/><rect x="736" y="704" width="32" height="32" fill="rgb(175,69,136)"/><rect x="768" y="704" width="32" height="32" fill="rgb(92,36,72)"/><rect x="800" y="704" width="32" height="32" fill="rgb(77,30,60)"/><rect x="832" y="704" width="32" height="32" fill="rgb(138,54,107)"/><rect x="864" y="704" width="32" height="32" fill="rgb(74,29,57)"/><rect x="896" y="704" width="32" height="32" fill="rgb(148,58,115)"/><rect x="928" y="704" width="32" height="32" fill="rgb(105,41,81)"/></g>
  <rect x="0" y="0" width="960" height="720" fill="rgba(10,10,14,0.46)"/>
  <g fill="none" stroke-linecap="butt">
    <path d="M3,717 L3,3 L957,3" stroke="rgba(255,255,255,0.32)" stroke-width="6"/>
    <path d="M957,3 L957,717 L3,717" stroke="rgba(0,0,0,0.5)" stroke-width="6"/>
  </g>
  <rect x="88" y="196" width="784" height="328" fill="rgba(0,0,0,0.6)"/>
  <g fill="none" stroke-linecap="butt">
    <path d="M88,524 L88,196 L872,196" stroke="rgba(255,255,255,0.32)" stroke-width="7"/>
    <path d="M872,196 L872,524 L88,524" stroke="rgba(0,0,0,0.5)" stroke-width="7"/>
  </g>
  <text x="480" y="326" font-family="'Minercraftory', 'Minecraft', ui-monospace, Menlo, Consolas, monospace" font-size="48" font-weight="700"
    fill="#ffffff" text-anchor="middle" letter-spacing="4"
    style="paint-order:stroke" stroke="rgba(0,0,0,0.7)" stroke-width="6">截图占位图 01</text>
  <text x="480" y="390" font-family="'Minercraftory', 'Minecraft', ui-monospace, Menlo, Consolas, monospace" font-size="30" font-weight="400"
    fill="rgba(255,255,255,0.85)" text-anchor="middle" letter-spacing="0"
    style="paint-order:stroke" stroke="rgba(0,0,0,0.7)" stroke-width="4">X动漫联盟协会</text>
  <text x="480" y="676" font-family="'Minercraftory', 'Minecraft', ui-monospace, Menlo, Consolas, monospace" font-size="22" font-weight="400"
    fill="rgba(255,255,255,0.45)" text-anchor="middle" letter-spacing="0"
    style="paint-order:stroke" stroke="rgba(0,0,0,0.7)" stroke-width="3">960×720 · 替换 static/img/clubs/x-anime/shot-1.*</text>
</svg>
